<svg width="30" height="30" viewBox="0 0 30 30" fill="none" xmlns="http://www.w3.org/2000/svg">
<path d="M2.18755 3.75C1.84945 3.74522 1.53497 3.92285 1.36453 4.21488C1.19408 4.50691 1.19408 4.86809 1.36453 5.16012C1.53497 5.45215 1.84945 5.62979 2.18755 5.625H3.90996C4.36492 5.625 4.74416 5.93933 4.83037 6.38672L5.01714 7.36329L7.03252 17.948C7.39697 19.8577 9.07951 21.25 11.0242 21.25H22.7259C24.6706 21.25 26.3538 19.8582 26.7176 17.948L28.733 7.36329C28.7853 7.0889 28.7126 6.80546 28.5346 6.59018C28.3566 6.37489 28.0919 6.25018 27.8125 6.25001H6.71269L6.67241 6.03638C6.42046 4.71596 5.2544 3.75001 3.90996 3.75001L2.18755 3.75ZM7.07036 8.125H26.6797L24.8755 17.5977C24.678 18.6349 23.7824 19.375 22.7259 19.375H11.0242C9.96805 19.375 9.07303 18.6349 8.87456 17.5977V17.5964L7.07036 8.125ZM12.5 22.5C11.4645 22.5 10.625 23.3395 10.625 24.375C10.625 25.4105 11.4645 26.25 12.5 26.25C13.5356 26.25 14.375 25.4105 14.375 24.375C14.375 23.3395 13.5356 22.5 12.5 22.5ZM21.25 22.5C20.2145 22.5 19.375 23.3395 19.375 24.375C19.375 25.4105 20.2145 26.25 21.25 26.25C22.2856 26.25 23.125 25.4105 23.125 24.375C23.125 23.3395 22.2856 22.5 21.25 22.5Z" fill="white"/>
</svg>
