<svg width="318" height="310" viewBox="0 0 318 310" fill="none" xmlns="http://www.w3.org/2000/svg">
<path d="M58.2802 242.466C24.7565 227.318 -18.0126 266.992 -31.9953 297.937C-43.6475 323.724 -44.7365 360.495 -18.9491 372.147C14.5745 387.295 57.3437 347.621 71.3263 316.676C82.9786 290.889 84.0675 254.118 58.2802 242.466ZM156.272 286.744C130.485 275.092 103.608 300.211 91.9562 325.998C76.8083 359.522 75.299 417.839 108.823 432.987C134.61 444.64 161.486 419.521 173.139 393.733C190.865 361.375 192.375 303.057 156.272 286.744ZM-46.2067 226.305C-12.6831 241.453 31.4996 205.523 46.6475 171.999C57.1345 148.79 57.3066 120.921 34.0979 110.434C0.574316 95.2858 -43.6083 131.216 -58.7562 164.74C-69.2432 187.948 -66.8366 216.983 -46.2067 226.305ZM214.266 247.738C199.118 281.262 203.931 339.332 234.876 353.314C258.085 363.801 278.886 345.254 289.374 322.045C304.521 288.521 299.708 230.452 268.763 216.469C245.555 205.982 224.753 224.53 214.266 247.738ZM129.415 215.609C180.99 238.913 287.903 187.855 313.538 131.122C325.19 105.335 310.635 89.4422 290.005 80.1204C259.06 66.1377 226.53 76.2806 198.164 63.4632C172.376 51.8109 158.489 20.694 130.123 7.87656C109.493 -1.44522 83.9542 -6.77473 71.1368 21.5914C45.5019 78.3237 77.8407 192.304 129.415 215.609Z" fill="#465D59" fill-opacity="0.09"/>
</svg>
