<svg width="298" height="565" viewBox="0 0 298 565" fill="none" xmlns="http://www.w3.org/2000/svg">
<path d="M354.663 256.193C394.384 269.975 438.972 220.401 451.694 183.735C462.295 153.18 459.74 111.213 429.184 100.611C389.463 86.829 344.875 136.403 332.153 173.069C321.552 203.624 324.108 245.591 354.663 256.193ZM238.553 215.907C269.108 226.508 297.108 195.143 307.709 164.588C321.491 124.866 317.19 58.3296 277.469 44.5475C246.913 33.9459 218.914 65.3113 208.312 95.8665C191.475 134.528 195.776 201.064 238.553 215.907ZM475.263 263.803C435.541 250.021 388.959 295.479 375.177 335.201C365.635 362.7 368.316 394.441 395.815 403.982C435.537 417.764 482.12 372.306 495.902 332.585C505.443 305.085 499.707 272.285 475.263 263.803ZM176.568 266.29C190.35 226.569 178.878 160.968 142.211 148.246C114.712 138.704 92.9483 161.963 83.4068 189.463C69.6247 229.185 81.097 294.786 117.763 307.508C145.263 317.049 167.026 293.79 176.568 266.29ZM276.465 294.104C215.354 272.901 98.9302 342.053 75.6067 409.275C65.0051 439.83 83.2132 456.418 107.657 464.899C144.324 477.621 180.304 462.718 213.915 474.38C244.47 484.982 263.489 518.967 297.099 530.629C321.544 539.11 351.164 542.541 362.825 508.93C386.149 441.709 337.575 315.308 276.465 294.104Z" fill="#E8F7EE" fill-opacity="0.08"/>
</svg>
