<svg width="30" height="30" viewBox="0 0 30 30" fill="none" xmlns="http://www.w3.org/2000/svg">
<path d="M15 2.5C11.5593 2.5 8.75 5.30933 8.75 8.75C8.75 12.1907 11.5593 15 15 15C18.4407 15 21.25 12.1907 21.25 8.75C21.25 5.30933 18.4407 2.5 15 2.5ZM15 4.375C17.4274 4.375 19.375 6.32265 19.375 8.75C19.375 11.1774 17.4274 13.125 15 13.125C12.5726 13.125 10.625 11.1774 10.625 8.75C10.625 6.32265 12.5726 4.375 15 4.375ZM7.8125 17.5C6.27031 17.5 5 18.7703 5 20.3125V21.062C5 22.9001 6.16545 24.5487 7.94312 25.6824C9.72078 26.816 12.153 27.5 15 27.5C17.847 27.5 20.2792 26.816 22.0569 25.6824C23.8346 24.5487 25 22.9001 25 21.062V20.3125C25 18.7703 23.7297 17.5 22.1875 17.5H7.8125ZM7.8125 19.375H22.1875C22.7166 19.375 23.125 19.7834 23.125 20.3125V21.062C23.125 22.1027 22.4547 23.2049 21.0486 24.1016C19.6425 24.9982 17.543 25.625 15 25.625C12.457 25.625 10.3575 24.9982 8.95141 24.1016C7.54533 23.2049 6.875 22.1027 6.875 21.062V20.3125C6.875 19.7834 7.28344 19.375 7.8125 19.375L7.8125 19.375Z" fill="white"/>
</svg>
