<svg width="565" height="111" viewBox="0 0 565 111" fill="none" xmlns="http://www.w3.org/2000/svg">
<mask id="path-1-outside-1_303_1246" maskUnits="userSpaceOnUse" x="1.4353" y="4.0144" width="56" height="52" fill="black">
<rect fill="white" x="1.4353" y="4.0144" width="56" height="52"/>
<path d="M39.9244 5.01475C35.5395 4.97733 31.697 8.00859 30.7105 12.2804L28.6085 21.3868C19.7994 22.2715 12.5049 30.4681 12.5049 39.3629V40.5885C12.5049 44.8458 14.4588 48.5684 17.4171 51.2037C10.4612 51.1562 8.03135 49.024 6.97028 47.173C5.89724 45.301 6.21833 43.4645 6.21833 43.4645C6.32947 42.9036 6.17869 42.3227 5.80881 41.8868C5.43893 41.4508 4.89036 41.2074 4.31892 41.2257C3.42818 41.255 2.6811 41.9071 2.53181 42.7857C2.53181 42.7857 1.93361 45.9289 3.71589 49.0382C5.40477 51.9845 9.24775 54.6635 16.421 54.9366C16.5697 54.9722 16.7222 54.9894 16.8751 54.9879H29.3751C29.4814 54.9888 29.5875 54.9806 29.6925 54.9635H36.3746H50.1392C52.5329 54.9635 54.5142 52.9822 54.5142 50.5885C54.5142 47.9094 52.9681 45.5635 50.7081 44.4361C50.8523 44.5081 50.5836 44.36 50.3077 44.1676C50.0318 43.9751 49.6605 43.7039 49.231 43.3668C48.372 42.6925 47.282 41.7598 46.211 40.6788C44.0691 38.5169 42.1172 35.7054 41.8751 33.5304C41.6042 31.1098 42.7565 28.3673 44.0577 26.3038C44.1527 26.1531 45.8407 25.0169 47.5587 24.3727C48.4176 24.0505 49.2754 23.7767 49.9708 23.5597C50.3185 23.4511 50.6252 23.357 50.8839 23.274C51.1415 23.1914 51.2808 23.1675 51.6309 22.9957L51.6334 22.9933C52.5597 22.539 53.7596 21.9184 54.7169 20.713C55.675 19.5065 56.2525 17.7912 56.2525 15.6129C56.2525 13.592 55.2257 11.8443 53.8429 10.6471C52.46 9.4498 50.6797 8.71347 48.7867 8.71347H47.1973L46.3575 7.82236C44.6848 6.04849 42.3605 5.0353 39.9244 5.01475H39.9244ZM39.8926 8.76475C41.3091 8.7767 42.6581 9.36448 43.6304 10.3956L45.0245 11.8751C45.3789 12.2508 45.8727 12.4637 46.3892 12.4635H48.7867C49.6549 12.4635 50.6674 12.8566 51.3892 13.4815C52.111 14.1065 52.5025 14.8725 52.5025 15.6129C52.5025 17.1846 52.1696 17.8883 51.7799 18.379C51.3902 18.8697 50.8051 19.2247 49.9805 19.629C49.9797 19.629 49.9789 19.629 49.9781 19.629C50.1635 19.5378 49.9583 19.6319 49.7388 19.7022C49.5194 19.7726 49.2108 19.8688 48.8526 19.9806C48.1361 20.2042 47.2099 20.4983 46.2403 20.8619C44.3011 21.5892 42.1588 22.2862 40.8863 24.3043C39.35 26.7408 37.7254 30.1584 38.1495 33.9479C38.5694 37.7118 41.1336 40.8816 43.5474 43.318C44.7546 44.5364 45.9525 45.5592 46.9166 46.316C47.3986 46.6944 47.8208 47.0043 48.1641 47.2437C48.5074 47.4832 48.6812 47.6149 49.0333 47.7906C50.0558 48.3007 50.7642 49.3475 50.7642 50.5885C50.7642 50.9573 50.508 51.2135 50.1392 51.2135H40.6959C40.7276 51.003 40.7618 50.7924 40.7618 50.5738C40.7618 47.3528 38.4551 44.752 35.4444 44.0284C34.6452 38.2573 29.8703 33.7135 23.8868 33.7135H22.6368C21.9606 33.7039 21.3316 34.0592 20.9907 34.6432C20.6499 35.2273 20.6499 35.9497 20.9907 36.5337C21.3316 37.1178 21.9606 37.473 22.6368 37.4635H23.8868C28.3793 37.4635 31.9757 41.0561 32.002 45.5421C31.9961 45.796 32.0417 46.0485 32.1363 46.2843C32.1426 46.3015 32.1491 46.3186 32.1558 46.3355C32.1606 46.3462 32.1655 46.3568 32.1705 46.3673C32.1928 46.4163 32.2172 46.4644 32.2437 46.5113C32.5841 47.1336 33.2464 47.5105 33.9551 47.4854C35.6653 47.5183 37.0118 48.8546 37.0118 50.5738C37.0118 50.9489 36.7486 51.2135 36.3746 51.2135H26.8799C20.9895 51.2135 16.255 46.479 16.255 40.5885V39.3629C16.255 32.2075 23.0613 24.9635 30.1392 24.9635C30.3093 24.9628 30.4785 24.939 30.6422 24.8927C35.1839 24.7033 38.2219 22.616 39.856 20.4762C41.5674 18.2351 41.9825 15.9205 41.9825 15.9205C42.1017 15.261 41.86 14.588 41.3484 14.1551C40.8369 13.7222 40.1332 13.5951 39.5025 13.8218C38.8718 14.0485 38.41 14.5945 38.2911 15.254C38.2911 15.254 38.0274 16.6918 36.8751 18.2008C36.0597 19.2684 34.5961 20.13 32.6246 20.6617L34.3629 13.1251C34.9589 10.5444 37.245 8.74216 39.8926 8.76475L39.8926 8.76475Z"/>
</mask>
<path d="M39.9244 5.01475C35.5395 4.97733 31.697 8.00859 30.7105 12.2804L28.6085 21.3868C19.7994 22.2715 12.5049 30.4681 12.5049 39.3629V40.5885C12.5049 44.8458 14.4588 48.5684 17.4171 51.2037C10.4612 51.1562 8.03135 49.024 6.97028 47.173C5.89724 45.301 6.21833 43.4645 6.21833 43.4645C6.32947 42.9036 6.17869 42.3227 5.80881 41.8868C5.43893 41.4508 4.89036 41.2074 4.31892 41.2257C3.42818 41.255 2.6811 41.9071 2.53181 42.7857C2.53181 42.7857 1.93361 45.9289 3.71589 49.0382C5.40477 51.9845 9.24775 54.6635 16.421 54.9366C16.5697 54.9722 16.7222 54.9894 16.8751 54.9879H29.3751C29.4814 54.9888 29.5875 54.9806 29.6925 54.9635H36.3746H50.1392C52.5329 54.9635 54.5142 52.9822 54.5142 50.5885C54.5142 47.9094 52.9681 45.5635 50.7081 44.4361C50.8523 44.5081 50.5836 44.36 50.3077 44.1676C50.0318 43.9751 49.6605 43.7039 49.231 43.3668C48.372 42.6925 47.282 41.7598 46.211 40.6788C44.0691 38.5169 42.1172 35.7054 41.8751 33.5304C41.6042 31.1098 42.7565 28.3673 44.0577 26.3038C44.1527 26.1531 45.8407 25.0169 47.5587 24.3727C48.4176 24.0505 49.2754 23.7767 49.9708 23.5597C50.3185 23.4511 50.6252 23.357 50.8839 23.274C51.1415 23.1914 51.2808 23.1675 51.6309 22.9957L51.6334 22.9933C52.5597 22.539 53.7596 21.9184 54.7169 20.713C55.675 19.5065 56.2525 17.7912 56.2525 15.6129C56.2525 13.592 55.2257 11.8443 53.8429 10.6471C52.46 9.4498 50.6797 8.71347 48.7867 8.71347H47.1973L46.3575 7.82236C44.6848 6.04849 42.3605 5.0353 39.9244 5.01475H39.9244ZM39.8926 8.76475C41.3091 8.7767 42.6581 9.36448 43.6304 10.3956L45.0245 11.8751C45.3789 12.2508 45.8727 12.4637 46.3892 12.4635H48.7867C49.6549 12.4635 50.6674 12.8566 51.3892 13.4815C52.111 14.1065 52.5025 14.8725 52.5025 15.6129C52.5025 17.1846 52.1696 17.8883 51.7799 18.379C51.3902 18.8697 50.8051 19.2247 49.9805 19.629C49.9797 19.629 49.9789 19.629 49.9781 19.629C50.1635 19.5378 49.9583 19.6319 49.7388 19.7022C49.5194 19.7726 49.2108 19.8688 48.8526 19.9806C48.1361 20.2042 47.2099 20.4983 46.2403 20.8619C44.3011 21.5892 42.1588 22.2862 40.8863 24.3043C39.35 26.7408 37.7254 30.1584 38.1495 33.9479C38.5694 37.7118 41.1336 40.8816 43.5474 43.318C44.7546 44.5364 45.9525 45.5592 46.9166 46.316C47.3986 46.6944 47.8208 47.0043 48.1641 47.2437C48.5074 47.4832 48.6812 47.6149 49.0333 47.7906C50.0558 48.3007 50.7642 49.3475 50.7642 50.5885C50.7642 50.9573 50.508 51.2135 50.1392 51.2135H40.6959C40.7276 51.003 40.7618 50.7924 40.7618 50.5738C40.7618 47.3528 38.4551 44.752 35.4444 44.0284C34.6452 38.2573 29.8703 33.7135 23.8868 33.7135H22.6368C21.9606 33.7039 21.3316 34.0592 20.9907 34.6432C20.6499 35.2273 20.6499 35.9497 20.9907 36.5337C21.3316 37.1178 21.9606 37.473 22.6368 37.4635H23.8868C28.3793 37.4635 31.9757 41.0561 32.002 45.5421C31.9961 45.796 32.0417 46.0485 32.1363 46.2843C32.1426 46.3015 32.1491 46.3186 32.1558 46.3355C32.1606 46.3462 32.1655 46.3568 32.1705 46.3673C32.1928 46.4163 32.2172 46.4644 32.2437 46.5113C32.5841 47.1336 33.2464 47.5105 33.9551 47.4854C35.6653 47.5183 37.0118 48.8546 37.0118 50.5738C37.0118 50.9489 36.7486 51.2135 36.3746 51.2135H26.8799C20.9895 51.2135 16.255 46.479 16.255 40.5885V39.3629C16.255 32.2075 23.0613 24.9635 30.1392 24.9635C30.3093 24.9628 30.4785 24.939 30.6422 24.8927C35.1839 24.7033 38.2219 22.616 39.856 20.4762C41.5674 18.2351 41.9825 15.9205 41.9825 15.9205C42.1017 15.261 41.86 14.588 41.3484 14.1551C40.8369 13.7222 40.1332 13.5951 39.5025 13.8218C38.8718 14.0485 38.41 14.5945 38.2911 15.254C38.2911 15.254 38.0274 16.6918 36.8751 18.2008C36.0597 19.2684 34.5961 20.13 32.6246 20.6617L34.3629 13.1251C34.9589 10.5444 37.245 8.74216 39.8926 8.76475L39.8926 8.76475Z" fill="#465D59"/>
<path d="M39.9244 5.01475L39.9159 6.01475H39.9244V5.01475ZM30.7105 12.2804L29.7362 12.0554L29.7361 12.0555L30.7105 12.2804ZM28.6085 21.3868L28.7084 22.3818L29.4216 22.3102L29.5828 21.6117L28.6085 21.3868ZM17.4171 51.2037L17.4102 52.2037L20.0633 52.2218L18.0822 50.457L17.4171 51.2037ZM6.97028 47.173L6.10271 47.6703L6.97028 47.173ZM6.21833 43.4645L5.23741 43.2701L5.23521 43.2811L5.23327 43.2922L6.21833 43.4645ZM4.31892 41.2257L4.28692 40.2262L4.28608 40.2262L4.31892 41.2257ZM2.53181 42.7857L3.51417 42.9727L3.51602 42.963L3.51768 42.9533L2.53181 42.7857ZM3.71589 49.0382L4.58346 48.5409L3.71589 49.0382ZM16.421 54.9366L16.6534 53.964L16.5575 53.9411L16.459 53.9373L16.421 54.9366ZM16.8751 54.9879V53.9878L16.8654 53.9879L16.8751 54.9879ZM29.3751 54.9879L29.3833 53.9879H29.3751V54.9879ZM29.6925 54.9635V53.9635H29.6114L29.5314 53.9765L29.6925 54.9635ZM50.7081 44.4361L51.1545 43.5413L50.2614 45.3308L50.7081 44.4361ZM50.3077 44.1676L50.8797 43.3474L50.8797 43.3473L50.3077 44.1676ZM49.231 43.3668L48.6136 44.1534L48.6136 44.1534L49.231 43.3668ZM46.211 40.6788L45.5006 41.3826H45.5006L46.211 40.6788ZM41.8751 33.5304L42.8689 33.4197L42.8689 33.4191L41.8751 33.5304ZM44.0577 26.3038L43.2118 25.7704L43.2118 25.7704L44.0577 26.3038ZM47.5587 24.3727L47.9098 25.309H47.9098L47.5587 24.3727ZM49.9708 23.5597L50.2687 24.5142L50.2687 24.5142L49.9708 23.5597ZM50.8839 23.274L50.5785 22.3218L50.5785 22.3218L50.8839 23.274ZM51.6309 22.9957L52.0714 23.8935L52.2206 23.8203L52.338 23.7028L51.6309 22.9957ZM51.6334 22.9933L51.1931 22.0954L51.0438 22.1686L50.9263 22.2861L51.6334 22.9933ZM54.7169 20.713L55.5 21.3349V21.3349L54.7169 20.713ZM47.1973 8.71347L46.4696 9.39934L46.7657 9.71347H47.1973V8.71347ZM46.3575 7.82236L47.0852 7.1365L47.085 7.13631L46.3575 7.82236ZM39.9244 5.01475L39.9328 4.01475H39.9244V5.01475ZM39.8926 8.76475L39.9011 7.76478L38.4605 7.75263L38.9529 9.10649L39.8926 8.76475ZM43.6304 10.3956L44.3582 9.70983L44.358 9.70955L43.6304 10.3956ZM45.0245 11.8751L44.2967 12.5609L44.2971 12.5613L45.0245 11.8751ZM46.3892 12.4635V11.4635L46.3888 11.4635L46.3892 12.4635ZM51.3892 13.4815L50.7347 14.2376L50.7347 14.2376L51.3892 13.4815ZM51.7799 18.379L52.563 19.0009L52.563 19.0009L51.7799 18.379ZM49.9805 19.629V20.629H50.2125L50.4208 20.5269L49.9805 19.629ZM49.9781 19.629L49.5369 18.7316L49.9781 20.629V19.629ZM49.7388 19.7022L49.4335 18.75L49.4335 18.75L49.7388 19.7022ZM48.8526 19.9806L48.5547 19.026V19.026L48.8526 19.9806ZM46.2403 20.8619L46.5915 21.7982L46.5915 21.7982L46.2403 20.8619ZM40.8863 24.3043L41.7322 24.8377V24.8377L40.8863 24.3043ZM38.1495 33.9479L39.1433 33.837L39.1433 33.8366L38.1495 33.9479ZM43.5474 43.318L44.2578 42.6142H44.2578L43.5474 43.318ZM48.1641 47.2437L48.7362 46.4235L48.7362 46.4235L48.1641 47.2437ZM49.0333 47.7906L48.5866 48.6853L48.5869 48.6855L49.0333 47.7906ZM40.6959 51.2135L39.707 51.0646L39.534 52.2135H40.6959V51.2135ZM35.4444 44.0284L34.4539 44.1656L34.5474 44.8413L35.2107 45.0007L35.4444 44.0284ZM22.6368 33.7135L22.6226 34.7135H22.6368V33.7135ZM22.6368 37.4635V36.4634L22.6227 36.4636L22.6368 37.4635ZM32.002 45.5421L33.0017 45.5656L33.0021 45.5509L33.002 45.5362L32.002 45.5421ZM32.1363 46.2843L33.0759 45.9419L33.0704 45.9269L33.0644 45.912L32.1363 46.2843ZM32.1558 46.3355L31.2267 46.7052L31.2349 46.7258L31.2439 46.746L32.1558 46.3355ZM32.1705 46.3673L33.0806 45.9529L33.0776 45.9463L33.0745 45.9397L32.1705 46.3673ZM32.2437 46.5113L33.1211 46.0314L33.1147 46.0201L32.2437 46.5113ZM33.9551 47.4854L33.9743 46.4856L33.9471 46.4851L33.9198 46.4861L33.9551 47.4854ZM30.1392 24.9635V25.9635L30.1433 25.9635L30.1392 24.9635ZM30.6422 24.8927L30.6005 23.8935L30.4831 23.8984L30.3699 23.9304L30.6422 24.8927ZM39.856 20.4762L40.6508 21.0831L39.856 20.4762ZM41.9825 15.9205V16.9205H42.8179L42.9665 16.0984L41.9825 15.9205ZM41.3484 14.1551L40.7025 14.9185L40.7025 14.9185L41.3484 14.1551ZM39.5025 13.8218L39.1642 12.8807V12.8807L39.5025 13.8218ZM38.2911 15.254L39.2747 15.4344L39.2752 15.4314L38.2911 15.254ZM36.8751 18.2008L37.6698 18.8077L37.6698 18.8077L36.8751 18.2008ZM32.6246 20.6617L31.6502 20.437L31.2755 22.0613L32.885 21.6272L32.6246 20.6617ZM34.3629 13.1251L33.3885 12.9001L33.3884 12.9004L34.3629 13.1251ZM39.8926 8.76475L39.8841 9.76472L41.3248 9.77701L40.8324 8.42301L39.8926 8.76475ZM39.9329 4.01478C35.0791 3.97337 30.8281 7.32702 29.7362 12.0554L31.6849 12.5054C32.566 8.69016 36 5.9813 39.9159 6.01471L39.9329 4.01478ZM29.7361 12.0555L27.6341 21.1619L29.5828 21.6117L31.6849 12.5053L29.7361 12.0555ZM28.5085 20.3918C19.178 21.3289 11.5049 29.9651 11.5049 39.3629H13.5049C13.5049 30.9711 20.4208 23.2142 28.7084 22.3818L28.5085 20.3918ZM11.5049 39.3629V40.5885H13.5049V39.3629H11.5049ZM11.5049 40.5885C11.5049 45.1667 13.6087 49.1504 16.7519 51.9504L18.0822 50.457C15.3088 47.9864 13.5049 44.525 13.5049 40.5885H11.5049ZM17.4239 50.2037C14.0395 50.1806 11.8506 49.6498 10.4149 48.9627C9.00173 48.2863 8.27522 47.4386 7.83786 46.6756L6.10271 47.6703C6.72642 48.7584 7.74538 49.9023 9.55143 50.7667C11.3348 51.6202 13.8388 52.1793 17.4102 52.2037L17.4239 50.2037ZM7.83786 46.6756C7.39315 45.8998 7.23448 45.1257 7.18891 44.5392C7.16623 44.2473 7.17208 44.0078 7.18274 43.8467C7.18806 43.7664 7.19451 43.7065 7.19902 43.6701C7.20127 43.652 7.20302 43.6399 7.20388 43.6341C7.20431 43.6313 7.20452 43.63 7.20446 43.6304C7.20442 43.6306 7.20432 43.6312 7.20415 43.6323C7.20406 43.6328 7.20395 43.6334 7.20382 43.6342C7.20376 43.6345 7.20369 43.6349 7.20362 43.6353C7.20358 43.6355 7.20353 43.6359 7.20351 43.636C7.20345 43.6363 7.20339 43.6367 6.21833 43.4645C5.23327 43.2922 5.23321 43.2926 5.23314 43.293C5.23312 43.2931 5.23305 43.2935 5.23301 43.2937C5.23291 43.2943 5.23282 43.2948 5.23272 43.2954C5.23251 43.2966 5.23229 43.2979 5.23205 43.2993C5.23158 43.3021 5.23103 43.3054 5.23042 43.3092C5.22921 43.3166 5.22774 43.3259 5.22608 43.337C5.22277 43.359 5.21867 43.3882 5.21424 43.4239C5.20537 43.4953 5.19513 43.5935 5.18711 43.7146C5.1711 43.9564 5.16374 44.293 5.19492 44.6942C5.25707 45.494 5.47437 46.5741 6.10271 47.6703L7.83786 46.6756ZM7.19925 43.6589C7.36967 42.799 7.13848 41.9083 6.57134 41.2398L5.04628 42.5337C5.21891 42.7372 5.28928 43.0083 5.23741 43.2701L7.19925 43.6589ZM6.57134 41.2398C6.00421 40.5714 5.1631 40.1982 4.28692 40.2262L4.35091 42.2252C4.61762 42.2166 4.87365 42.3302 5.04628 42.5337L6.57134 41.2398ZM4.28608 40.2262C2.92032 40.2711 1.77484 41.2711 1.54594 42.6182L3.51768 42.9533C3.58735 42.5432 3.93603 42.2388 4.35176 42.2251L4.28608 40.2262ZM2.53181 42.7857C1.54944 42.5988 1.54937 42.5991 1.5493 42.5995C1.54927 42.5997 1.5492 42.6 1.54915 42.6003C1.54904 42.6009 1.54892 42.6015 1.5488 42.6022C1.54855 42.6035 1.54827 42.605 1.54795 42.6067C1.54732 42.6101 1.54656 42.6143 1.54567 42.6193C1.54391 42.6292 1.54165 42.6422 1.53901 42.6581C1.53373 42.6899 1.52689 42.7336 1.51923 42.7883C1.50393 42.8977 1.48534 43.0515 1.46955 43.2435C1.43802 43.6268 1.41736 44.1657 1.45743 44.8082C1.53734 46.0897 1.86084 47.8128 2.84831 49.5355L4.58346 48.5409C3.78866 47.1543 3.52012 45.7512 3.45356 44.6838C3.42039 44.1519 3.43789 43.7106 3.46282 43.4074C3.47526 43.2561 3.48949 43.1401 3.49994 43.0655C3.50516 43.0281 3.50942 43.0012 3.51203 42.9855C3.51334 42.9776 3.51423 42.9726 3.51461 42.9704C3.51481 42.9693 3.51487 42.969 3.5148 42.9693C3.51477 42.9695 3.5147 42.9699 3.5146 42.9705C3.51454 42.9707 3.51448 42.9711 3.51441 42.9714C3.51438 42.9716 3.51432 42.9719 3.5143 42.972C3.51424 42.9724 3.51417 42.9727 2.53181 42.7857ZM2.84831 49.5355C4.75568 52.863 8.97155 55.6537 16.3829 55.9359L16.459 53.9373C9.52395 53.6733 6.05387 51.1061 4.58346 48.5409L2.84831 49.5355ZM16.1885 55.9092C16.4166 55.9637 16.6504 55.9901 16.8848 55.9878L16.8654 53.9879C16.794 53.9886 16.7228 53.9806 16.6534 53.964L16.1885 55.9092ZM16.8751 55.9879H29.3751V53.9879H16.8751V55.9879ZM29.3669 55.9879C29.5298 55.9892 29.6926 55.9767 29.8535 55.9504L29.5314 53.9765C29.4824 53.9845 29.4329 53.9883 29.3833 53.9879L29.3669 55.9879ZM29.6925 55.9635H36.3746V53.9635H29.6925V55.9635ZM36.3746 55.9635H50.1392V53.9635H36.3746V55.9635ZM50.1392 55.9635C53.0852 55.9635 55.5142 53.5345 55.5142 50.5885H53.5142C53.5142 52.4299 51.9806 53.9635 50.1392 53.9635V55.9635ZM55.5142 50.5885C55.5142 47.5178 53.7424 44.8323 51.1545 43.5413L50.2617 45.331C52.1938 46.2948 53.5142 48.301 53.5142 50.5885H55.5142ZM50.2614 45.3308C50.2721 45.3362 50.3156 45.3582 50.3591 45.3763C50.3687 45.3803 50.4085 45.397 50.4605 45.4125C50.4805 45.4185 50.5499 45.4392 50.6416 45.449C50.6851 45.4536 50.7835 45.4617 50.9064 45.442C51.013 45.425 51.2934 45.3624 51.5164 45.095C51.7736 44.7865 51.7686 44.4383 51.7251 44.24C51.6866 44.0648 51.6103 43.9444 51.5801 43.8992C51.5141 43.8003 51.4451 43.7367 51.4302 43.7228C51.3847 43.6803 51.3446 43.6511 51.3369 43.6455C51.2872 43.609 51.205 43.559 51.1941 43.5522C51.1115 43.5007 50.9946 43.4274 50.8797 43.3474L49.7357 44.9878C49.8967 45.1001 50.0521 45.1971 50.1368 45.2499C50.2095 45.2951 50.1847 45.2807 50.1534 45.2577C50.1481 45.2538 50.1096 45.226 50.0652 45.1845C50.0508 45.1711 49.9822 45.1078 49.9164 45.0093C49.8864 44.9642 49.8101 44.844 49.7716 44.6688C49.7281 44.4707 49.7231 44.1226 49.9803 43.8142C50.2032 43.5468 50.4835 43.4843 50.5899 43.4672C50.7128 43.4476 50.8109 43.4557 50.8542 43.4603C50.9455 43.4701 51.0143 43.4906 51.0335 43.4963C51.0839 43.5114 51.1215 43.5273 51.1281 43.53C51.1597 43.5432 51.1801 43.5541 51.1547 43.5414L50.2614 45.3308ZM50.8797 43.3473C50.6193 43.1657 50.2632 42.9058 49.8485 42.5802L48.6136 44.1534C49.0578 44.5021 49.4442 44.7845 49.7357 44.9878L50.8797 43.3473ZM49.8485 42.5802C49.016 41.9267 47.9581 41.0214 46.9214 39.975L45.5006 41.3826C46.6058 42.4981 47.728 43.4583 48.6136 44.1534L49.8485 42.5802ZM46.9214 39.975C45.8921 38.9361 44.9169 37.7489 44.1762 36.5757C43.4246 35.3852 42.9657 34.2893 42.8689 33.4197L40.8812 33.641C41.0265 34.9465 41.6646 36.3439 42.485 37.6434C43.3163 38.9601 44.388 40.2596 45.5006 41.3826L46.9214 39.975ZM42.8689 33.4191C42.6363 31.3414 43.6401 28.841 44.9036 26.8372L43.2118 25.7704C41.873 27.8936 40.572 30.8782 40.8813 33.6416L42.8689 33.4191ZM44.9036 26.8372C44.8614 26.904 44.8216 26.9481 44.8087 26.9622C44.7915 26.981 44.7789 26.9929 44.7751 26.9964C44.7677 27.0032 44.7702 27.0003 44.7885 26.9858C44.8237 26.9577 44.8847 26.9122 44.9735 26.8506C45.149 26.7287 45.4017 26.5655 45.7085 26.3842C46.3255 26.0194 47.1227 25.6042 47.9098 25.309L47.2075 23.4363C46.2767 23.7854 45.3709 24.2604 44.6907 24.6625C44.3489 24.8646 44.0544 25.0539 43.8329 25.2076C43.7233 25.2838 43.6234 25.3568 43.5414 25.4222C43.501 25.4544 43.4558 25.492 43.4125 25.5324C43.3892 25.554 43.2925 25.6424 43.2118 25.7704L44.9036 26.8372ZM47.9098 25.309C48.7411 24.9972 49.5766 24.7303 50.2687 24.5142L49.6728 22.6051C48.9742 22.8231 48.0941 23.1038 47.2075 23.4363L47.9098 25.309ZM50.2687 24.5142C50.6096 24.4079 50.9257 24.3108 51.1893 24.2262L50.5785 22.3218C50.3247 22.4032 50.0273 22.4944 49.6728 22.6051L50.2687 24.5142ZM51.1893 24.2262C51.3977 24.1594 51.6366 24.1068 52.0714 23.8935L51.1905 22.0979C51.0497 22.167 50.9666 22.1991 50.9 22.2218C50.8623 22.2346 50.8241 22.2465 50.7708 22.2626C50.7203 22.2778 50.653 22.2979 50.5785 22.3218L51.1893 24.2262ZM52.338 23.7028L52.3405 23.7004L50.9263 22.2861L50.9238 22.2886L52.338 23.7028ZM52.0737 23.8911C53.0137 23.4301 54.3931 22.7287 55.5 21.3349L53.9338 20.0911C53.1261 21.1081 52.1057 21.6478 51.1931 22.0954L52.0737 23.8911ZM55.5 21.3349C56.6277 19.9149 57.2525 17.9653 57.2525 15.6129H55.2525C55.2525 17.6172 54.7223 19.0981 53.9338 20.0911L55.5 21.3349ZM57.2525 15.6129C57.2525 13.2398 56.048 11.2335 54.4974 9.89105L53.1883 11.4031C54.4035 12.4552 55.2525 13.9442 55.2525 15.6129H57.2525ZM54.4974 9.89105C52.9498 8.55118 50.9418 7.71347 48.7867 7.71347V9.71347C50.4177 9.71347 51.9701 10.3484 53.1883 11.4031L54.4974 9.89105ZM48.7867 7.71347H47.1973V9.71347H48.7867V7.71347ZM47.9251 8.02761L47.0852 7.1365L45.6298 8.50823L46.4696 9.39934L47.9251 8.02761ZM47.085 7.13631C45.2252 5.164 42.6411 4.03763 39.9328 4.01478L39.916 6.01471C42.0799 6.03297 44.1444 6.93298 45.6299 8.50842L47.085 7.13631ZM39.9244 4.01475H39.9244V6.01475H39.9244V4.01475ZM39.8842 9.76471C41.0286 9.77437 42.1178 10.2491 42.9029 11.0817L44.358 9.70955C43.1984 8.47986 41.5895 7.77903 39.9011 7.76478L39.8842 9.76471ZM42.9026 11.0814L44.2967 12.5609L45.7523 11.1893L44.3582 9.70983L42.9026 11.0814ZM44.2971 12.5613C44.8406 13.1374 45.5976 13.4638 46.3896 13.4635L46.3888 11.4635C46.1477 11.4636 45.9173 11.3642 45.7519 11.1889L44.2971 12.5613ZM46.3892 13.4635H48.7867V11.4635H46.3892V13.4635ZM48.7867 13.4635C49.3931 13.4635 50.1778 13.7554 50.7347 14.2376L52.0438 12.7255C51.1571 11.9579 49.9168 11.4635 48.7867 11.4635V13.4635ZM50.7347 14.2376C51.296 14.7235 51.5025 15.2325 51.5025 15.6129H53.5025C53.5025 14.5126 52.9261 13.4894 52.0438 12.7255L50.7347 14.2376ZM51.5025 15.6129C51.5025 17.0188 51.2127 17.4852 50.9968 17.7571L52.563 19.0009C53.1264 18.2914 53.5025 17.3503 53.5025 15.6129H51.5025ZM50.9968 17.7571C50.7582 18.0576 50.3559 18.3312 49.5403 18.7311L50.4208 20.5269C51.2544 20.1181 52.0222 19.6819 52.563 19.0009L50.9968 17.7571ZM49.9805 18.629C49.9805 18.629 49.9805 18.629 49.9805 18.629C49.9805 18.629 49.9805 18.629 49.9805 18.629H49.9805H49.9805C49.9805 18.629 49.9805 18.629 49.9805 18.629C49.9805 18.629 49.9805 18.629 49.9805 18.629H49.9805H49.9805C49.9805 18.629 49.9805 18.629 49.9805 18.629C49.9805 18.629 49.9805 18.629 49.9805 18.629H49.9805H49.9805C49.9805 18.629 49.9805 18.629 49.9805 18.629C49.9805 18.629 49.9805 18.629 49.9805 18.629H49.9805H49.9805C49.9805 18.629 49.9805 18.629 49.9805 18.629C49.9805 18.629 49.9805 18.629 49.9805 18.629H49.9804H49.9804C49.9804 18.629 49.9804 18.629 49.9804 18.629C49.9804 18.629 49.9804 18.629 49.9804 18.629H49.9804H49.9804C49.9804 18.629 49.9804 18.629 49.9804 18.629C49.9804 18.629 49.9804 18.629 49.9804 18.629H49.9804H49.9804C49.9804 18.629 49.9804 18.629 49.9804 18.629C49.9804 18.629 49.9804 18.629 49.9804 18.629H49.9804H49.9804C49.9804 18.629 49.9804 18.629 49.9804 18.629C49.9804 18.629 49.9804 18.629 49.9804 18.629H49.9804H49.9804C49.9804 18.629 49.9804 18.629 49.9804 18.629C49.9804 18.629 49.9804 18.629 49.9804 18.629H49.9804H49.9804C49.9803 18.629 49.9803 18.629 49.9803 18.629C49.9803 18.629 49.9803 18.629 49.9803 18.629H49.9803H49.9803C49.9803 18.629 49.9803 18.629 49.9803 18.629C49.9803 18.629 49.9803 18.629 49.9803 18.629C49.9803 18.629 49.9803 18.629 49.9803 18.629H49.9803C49.9803 18.629 49.9803 18.629 49.9803 18.629C49.9803 18.629 49.9803 18.629 49.9803 18.629C49.9803 18.629 49.9803 18.629 49.9803 18.629H49.9803C49.9803 18.629 49.9803 18.629 49.9803 18.629C49.9803 18.629 49.9803 18.629 49.9803 18.629C49.9803 18.629 49.9803 18.629 49.9803 18.629H49.9803C49.9803 18.629 49.9803 18.629 49.9803 18.629C49.9803 18.629 49.9803 18.629 49.9803 18.629C49.9803 18.629 49.9803 18.629 49.9803 18.629H49.9803C49.9803 18.629 49.9803 18.629 49.9803 18.629C49.9802 18.629 49.9802 18.629 49.9802 18.629C49.9802 18.629 49.9802 18.629 49.9802 18.629H49.9802C49.9802 18.629 49.9802 18.629 49.9802 18.629C49.9802 18.629 49.9802 18.629 49.9802 18.629C49.9802 18.629 49.9802 18.629 49.9802 18.629H49.9802C49.9802 18.629 49.9802 18.629 49.9802 18.629C49.9802 18.629 49.9802 18.629 49.9802 18.629C49.9802 18.629 49.9802 18.629 49.9802 18.629H49.9802C49.9802 18.629 49.9802 18.629 49.9802 18.629C49.9802 18.629 49.9802 18.629 49.9802 18.629C49.9802 18.629 49.9802 18.629 49.9802 18.629H49.9802C49.9802 18.629 49.9802 18.629 49.9802 18.629C49.9802 18.629 49.9802 18.629 49.9802 18.629C49.9802 18.629 49.9802 18.629 49.9802 18.629H49.9802C49.9802 18.629 49.9802 18.629 49.9802 18.629C49.9802 18.629 49.9802 18.629 49.9801 18.629C49.9801 18.629 49.9801 18.629 49.9801 18.629H49.9801C49.9801 18.629 49.9801 18.629 49.9801 18.629C49.9801 18.629 49.9801 18.629 49.9801 18.629C49.9801 18.629 49.9801 18.629 49.9801 18.629H49.9801C49.9801 18.629 49.9801 18.629 49.9801 18.629C49.9801 18.629 49.9801 18.629 49.9801 18.629C49.9801 18.629 49.9801 18.629 49.9801 18.629H49.9801C49.9801 18.629 49.9801 18.629 49.9801 18.629C49.9801 18.629 49.9801 18.629 49.9801 18.629C49.9801 18.629 49.9801 18.629 49.9801 18.629H49.9801H49.9801C49.9801 18.629 49.9801 18.629 49.9801 18.629C49.9801 18.629 49.9801 18.629 49.9801 18.629H49.9801H49.9801C49.9801 18.629 49.9801 18.629 49.9801 18.629C49.9801 18.629 49.9801 18.629 49.98 18.629H49.98H49.98C49.98 18.629 49.98 18.629 49.98 18.629C49.98 18.629 49.98 18.629 49.98 18.629H49.98H49.98C49.98 18.629 49.98 18.629 49.98 18.629C49.98 18.629 49.98 18.629 49.98 18.629H49.98H49.98C49.98 18.629 49.98 18.629 49.98 18.629C49.98 18.629 49.98 18.629 49.98 18.629H49.98H49.98C49.98 18.629 49.98 18.629 49.98 18.629C49.98 18.629 49.98 18.629 49.98 18.629H49.98H49.98C49.98 18.629 49.98 18.629 49.98 18.629C49.98 18.629 49.98 18.629 49.98 18.629H49.9799H49.9799C49.9799 18.629 49.9799 18.629 49.9799 18.629C49.9799 18.629 49.9799 18.629 49.9799 18.629H49.9799H49.9799C49.9799 18.629 49.9799 18.629 49.9799 18.629C49.9799 18.629 49.9799 18.629 49.9799 18.629H49.9799H49.9799C49.9799 18.629 49.9799 18.629 49.9799 18.629C49.9799 18.629 49.9799 18.629 49.9799 18.629H49.9799H49.9799C49.9799 18.629 49.9799 18.629 49.9799 18.629C49.9799 18.629 49.9799 18.629 49.9799 18.629H49.9799H49.9799C49.9799 18.629 49.9799 18.629 49.9799 18.629C49.9799 18.629 49.9799 18.629 49.9799 18.629H49.9799H49.9799C49.9798 18.629 49.9798 18.629 49.9798 18.629C49.9798 18.629 49.9798 18.629 49.9798 18.629H49.9798H49.9798C49.9798 18.629 49.9798 18.629 49.9798 18.629C49.9798 18.629 49.9798 18.629 49.9798 18.629H49.9798H49.9798C49.9798 18.629 49.9798 18.629 49.9798 18.629C49.9798 18.629 49.9798 18.629 49.9798 18.629H49.9798H49.9798C49.9798 18.629 49.9798 18.629 49.9798 18.629C49.9798 18.629 49.9798 18.629 49.9798 18.629H49.9798H49.9798C49.9798 18.629 49.9798 18.629 49.9798 18.629C49.9798 18.629 49.9798 18.629 49.9798 18.629H49.9798H49.9798C49.9798 18.629 49.9798 18.629 49.9798 18.629C49.9797 18.629 49.9797 18.629 49.9797 18.629H49.9797H49.9797C49.9797 18.629 49.9797 18.629 49.9797 18.629C49.9797 18.629 49.9797 18.629 49.9797 18.629H49.9797H49.9797C49.9797 18.629 49.9797 18.629 49.9797 18.629C49.9797 18.629 49.9797 18.629 49.9797 18.629H49.9797H49.9797C49.9797 18.629 49.9797 18.629 49.9797 18.629C49.9797 18.629 49.9797 18.629 49.9797 18.629H49.9797H49.9797C49.9797 18.629 49.9797 18.629 49.9797 18.629C49.9797 18.629 49.9797 18.629 49.9797 18.629C49.9797 18.629 49.9797 18.629 49.9797 18.629H49.9797C49.9797 18.629 49.9797 18.629 49.9797 18.629C49.9797 18.629 49.9797 18.629 49.9796 18.629C49.9796 18.629 49.9796 18.629 49.9796 18.629H49.9796C49.9796 18.629 49.9796 18.629 49.9796 18.629C49.9796 18.629 49.9796 18.629 49.9796 18.629C49.9796 18.629 49.9796 18.629 49.9796 18.629H49.9796C49.9796 18.629 49.9796 18.629 49.9796 18.629C49.9796 18.629 49.9796 18.629 49.9796 18.629C49.9796 18.629 49.9796 18.629 49.9796 18.629H49.9796C49.9796 18.629 49.9796 18.629 49.9796 18.629C49.9796 18.629 49.9796 18.629 49.9796 18.629C49.9796 18.629 49.9796 18.629 49.9796 18.629H49.9796C49.9796 18.629 49.9796 18.629 49.9796 18.629C49.9796 18.629 49.9796 18.629 49.9796 18.629C49.9796 18.629 49.9796 18.629 49.9796 18.629H49.9796C49.9796 18.629 49.9796 18.629 49.9796 18.629C49.9796 18.629 49.9796 18.629 49.9796 18.629C49.9796 18.629 49.9796 18.629 49.9795 18.629H49.9795C49.9795 18.629 49.9795 18.629 49.9795 18.629C49.9795 18.629 49.9795 18.629 49.9795 18.629C49.9795 18.629 49.9795 18.629 49.9795 18.629H49.9795C49.9795 18.629 49.9795 18.629 49.9795 18.629C49.9795 18.629 49.9795 18.629 49.9795 18.629C49.9795 18.629 49.9795 18.629 49.9795 18.629H49.9795C49.9795 18.629 49.9795 18.629 49.9795 18.629C49.9795 18.629 49.9795 18.629 49.9795 18.629C49.9795 18.629 49.9795 18.629 49.9795 18.629H49.9795C49.9795 18.629 49.9795 18.629 49.9795 18.629C49.9795 18.629 49.9795 18.629 49.9795 18.629C49.9795 18.629 49.9795 18.629 49.9795 18.629H49.9795C49.9795 18.629 49.9795 18.629 49.9795 18.629C49.9795 18.629 49.9795 18.629 49.9795 18.629C49.9795 18.629 49.9795 18.629 49.9795 18.629H49.9795H49.9794C49.9794 18.629 49.9794 18.629 49.9794 18.629C49.9794 18.629 49.9794 18.629 49.9794 18.629H49.9794H49.9794C49.9794 18.629 49.9794 18.629 49.9794 18.629C49.9794 18.629 49.9794 18.629 49.9794 18.629H49.9794H49.9794C49.9794 18.629 49.9794 18.629 49.9794 18.629C49.9794 18.629 49.9794 18.629 49.9794 18.629H49.9794H49.9794C49.9794 18.629 49.9794 18.629 49.9794 18.629C49.9794 18.629 49.9794 18.629 49.9794 18.629H49.9794H49.9794C49.9794 18.629 49.9794 18.629 49.9794 18.629C49.9794 18.629 49.9794 18.629 49.9794 18.629H49.9794H49.9794C49.9793 18.629 49.9793 18.629 49.9793 18.629C49.9793 18.629 49.9793 18.629 49.9793 18.629H49.9793H49.9793C49.9793 18.629 49.9793 18.629 49.9793 18.629C49.9793 18.629 49.9793 18.629 49.9793 18.629H49.9793H49.9793C49.9793 18.629 49.9793 18.629 49.9793 18.629C49.9793 18.629 49.9793 18.629 49.9793 18.629H49.9793H49.9793C49.9793 18.629 49.9793 18.629 49.9793 18.629C49.9793 18.629 49.9793 18.629 49.9793 18.629H49.9793H49.9793C49.9793 18.629 49.9793 18.629 49.9793 18.629C49.9793 18.629 49.9793 18.629 49.9793 18.629H49.9793H49.9793C49.9793 18.629 49.9793 18.629 49.9793 18.629C49.9792 18.629 49.9792 18.629 49.9792 18.629H49.9792H49.9792C49.9792 18.629 49.9792 18.629 49.9792 18.629C49.9792 18.629 49.9792 18.629 49.9792 18.629H49.9792H49.9792C49.9792 18.629 49.9792 18.629 49.9792 18.629C49.9792 18.629 49.9792 18.629 49.9792 18.629H49.9792H49.9792C49.9792 18.629 49.9792 18.629 49.9792 18.629C49.9792 18.629 49.9792 18.629 49.9792 18.629H49.9792H49.9792C49.9792 18.629 49.9792 18.629 49.9792 18.629C49.9792 18.629 49.9792 18.629 49.9792 18.629H49.9792H49.9792C49.9792 18.629 49.9792 18.629 49.9792 18.629C49.9792 18.629 49.9792 18.629 49.9791 18.629H49.9791H49.9791C49.9791 18.629 49.9791 18.629 49.9791 18.629C49.9791 18.629 49.9791 18.629 49.9791 18.629H49.9791H49.9791C49.9791 18.629 49.9791 18.629 49.9791 18.629C49.9791 18.629 49.9791 18.629 49.9791 18.629H49.9791H49.9791C49.9791 18.629 49.9791 18.629 49.9791 18.629C49.9791 18.629 49.9791 18.629 49.9791 18.629H49.9791H49.9791C49.9791 18.629 49.9791 18.629 49.9791 18.629C49.9791 18.629 49.9791 18.629 49.9791 18.629H49.9791H49.9791C49.9791 18.629 49.9791 18.629 49.9791 18.629C49.9791 18.629 49.9791 18.629 49.9791 18.629C49.9791 18.629 49.9791 18.629 49.979 18.629H49.979C49.979 18.629 49.979 18.629 49.979 18.629C49.979 18.629 49.979 18.629 49.979 18.629C49.979 18.629 49.979 18.629 49.979 18.629H49.979C49.979 18.629 49.979 18.629 49.979 18.629C49.979 18.629 49.979 18.629 49.979 18.629C49.979 18.629 49.979 18.629 49.979 18.629H49.979C49.979 18.629 49.979 18.629 49.979 18.629C49.979 18.629 49.979 18.629 49.979 18.629C49.979 18.629 49.979 18.629 49.979 18.629H49.979C49.979 18.629 49.979 18.629 49.979 18.629C49.979 18.629 49.979 18.629 49.979 18.629C49.979 18.629 49.979 18.629 49.979 18.629H49.979C49.979 18.629 49.979 18.629 49.979 18.629C49.979 18.629 49.979 18.629 49.979 18.629C49.979 18.629 49.979 18.629 49.979 18.629H49.979C49.9789 18.629 49.9789 18.629 49.9789 18.629C49.9789 18.629 49.9789 18.629 49.9789 18.629C49.9789 18.629 49.9789 18.629 49.9789 18.629H49.9789C49.9789 18.629 49.9789 18.629 49.9789 18.629C49.9789 18.629 49.9789 18.629 49.9789 18.629C49.9789 18.629 49.9789 18.629 49.9789 18.629H49.9789C49.9789 18.629 49.9789 18.629 49.9789 18.629C49.9789 18.629 49.9789 18.629 49.9789 18.629C49.9789 18.629 49.9789 18.629 49.9789 18.629H49.9789C49.9789 18.629 49.9789 18.629 49.9789 18.629C49.9789 18.629 49.9789 18.629 49.9789 18.629C49.9789 18.629 49.9789 18.629 49.9789 18.629H49.9789C49.9789 18.629 49.9789 18.629 49.9789 18.629C49.9789 18.629 49.9789 18.629 49.9789 18.629C49.9789 18.629 49.9789 18.629 49.9789 18.629H49.9789C49.9789 18.629 49.9789 18.629 49.9789 18.629C49.9788 18.629 49.9788 18.629 49.9788 18.629C49.9788 18.629 49.9788 18.629 49.9788 18.629H49.9788H49.9788C49.9788 18.629 49.9788 18.629 49.9788 18.629C49.9788 18.629 49.9788 18.629 49.9788 18.629H49.9788H49.9788C49.9788 18.629 49.9788 18.629 49.9788 18.629C49.9788 18.629 49.9788 18.629 49.9788 18.629H49.9788H49.9788C49.9788 18.629 49.9788 18.629 49.9788 18.629C49.9788 18.629 49.9788 18.629 49.9788 18.629H49.9788H49.9788C49.9788 18.629 49.9788 18.629 49.9788 18.629C49.9788 18.629 49.9788 18.629 49.9788 18.629H49.9788H49.9788C49.9788 18.629 49.9788 18.629 49.9787 18.629C49.9787 18.629 49.9787 18.629 49.9787 18.629H49.9787H49.9787C49.9787 18.629 49.9787 18.629 49.9787 18.629C49.9787 18.629 49.9787 18.629 49.9787 18.629H49.9787H49.9787C49.9787 18.629 49.9787 18.629 49.9787 18.629C49.9787 18.629 49.9787 18.629 49.9787 18.629H49.9787H49.9787C49.9787 18.629 49.9787 18.629 49.9787 18.629C49.9787 18.629 49.9787 18.629 49.9787 18.629H49.9787H49.9787C49.9787 18.629 49.9787 18.629 49.9787 18.629C49.9787 18.629 49.9787 18.629 49.9787 18.629H49.9787H49.9787C49.9787 18.629 49.9787 18.629 49.9787 18.629C49.9787 18.629 49.9787 18.629 49.9786 18.629H49.9786H49.9786C49.9786 18.629 49.9786 18.629 49.9786 18.629C49.9786 18.629 49.9786 18.629 49.9786 18.629H49.9786H49.9786C49.9786 18.629 49.9786 18.629 49.9786 18.629C49.9786 18.629 49.9786 18.629 49.9786 18.629H49.9786H49.9786C49.9786 18.629 49.9786 18.629 49.9786 18.629C49.9786 18.629 49.9786 18.629 49.9786 18.629H49.9786H49.9786C49.9786 18.629 49.9786 18.629 49.9786 18.629C49.9786 18.629 49.9786 18.629 49.9786 18.629H49.9786H49.9786C49.9786 18.629 49.9786 18.629 49.9786 18.629C49.9786 18.629 49.9786 18.629 49.9786 18.629H49.9785H49.9785C49.9785 18.629 49.9785 18.629 49.9785 18.629C49.9785 18.629 49.9785 18.629 49.9785 18.629H49.9785H49.9785C49.9785 18.629 49.9785 18.629 49.9785 18.629C49.9785 18.629 49.9785 18.629 49.9785 18.629H49.9785H49.9785C49.9785 18.629 49.9785 18.629 49.9785 18.629C49.9785 18.629 49.9785 18.629 49.9785 18.629H49.9785H49.9785C49.9785 18.629 49.9785 18.629 49.9785 18.629C49.9785 18.629 49.9785 18.629 49.9785 18.629H49.9785H49.9785C49.9785 18.629 49.9785 18.629 49.9785 18.629C49.9785 18.629 49.9785 18.629 49.9785 18.629H49.9785H49.9785C49.9784 18.629 49.9784 18.629 49.9784 18.629C49.9784 18.629 49.9784 18.629 49.9784 18.629H49.9784H49.9784C49.9784 18.629 49.9784 18.629 49.9784 18.629C49.9784 18.629 49.9784 18.629 49.9784 18.629H49.9784H49.9784C49.9784 18.629 49.9784 18.629 49.9784 18.629C49.9784 18.629 49.9784 18.629 49.9784 18.629C49.9784 18.629 49.9784 18.629 49.9784 18.629H49.9784C49.9784 18.629 49.9784 18.629 49.9784 18.629C49.9784 18.629 49.9784 18.629 49.9784 18.629C49.9784 18.629 49.9784 18.629 49.9784 18.629H49.9784C49.9784 18.629 49.9784 18.629 49.9784 18.629C49.9784 18.629 49.9784 18.629 49.9784 18.629C49.9784 18.629 49.9784 18.629 49.9784 18.629H49.9784C49.9784 18.629 49.9784 18.629 49.9784 18.629C49.9783 18.629 49.9783 18.629 49.9783 18.629C49.9783 18.629 49.9783 18.629 49.9783 18.629H49.9783C49.9783 18.629 49.9783 18.629 49.9783 18.629C49.9783 18.629 49.9783 18.629 49.9783 18.629C49.9783 18.629 49.9783 18.629 49.9783 18.629H49.9783C49.9783 18.629 49.9783 18.629 49.9783 18.629C49.9783 18.629 49.9783 18.629 49.9783 18.629C49.9783 18.629 49.9783 18.629 49.9783 18.629H49.9783C49.9783 18.629 49.9783 18.629 49.9783 18.629C49.9783 18.629 49.9783 18.629 49.9783 18.629C49.9783 18.629 49.9783 18.629 49.9783 18.629H49.9783C49.9783 18.629 49.9783 18.629 49.9783 18.629C49.9783 18.629 49.9783 18.629 49.9783 18.629C49.9783 18.629 49.9783 18.629 49.9783 18.629H49.9783C49.9783 18.629 49.9783 18.629 49.9783 18.629C49.9783 18.629 49.9783 18.629 49.9782 18.629C49.9782 18.629 49.9782 18.629 49.9782 18.629H49.9782C49.9782 18.629 49.9782 18.629 49.9782 18.629C49.9782 18.629 49.9782 18.629 49.9782 18.629C49.9782 18.629 49.9782 18.629 49.9782 18.629H49.9782C49.9782 18.629 49.9782 18.629 49.9782 18.629C49.9782 18.629 49.9782 18.629 49.9782 18.629C49.9782 18.629 49.9782 18.629 49.9782 18.629H49.9782C49.9782 18.629 49.9782 18.629 49.9782 18.629C49.9782 18.629 49.9782 18.629 49.9782 18.629C49.9782 18.629 49.9782 18.629 49.9782 18.629H49.9782C49.9782 18.629 49.9782 18.629 49.9782 18.629C49.9782 18.629 49.9782 18.629 49.9782 18.629C49.9782 18.629 49.9782 18.629 49.9782 18.629H49.9782H49.9782C49.9782 18.629 49.9782 18.629 49.9782 18.629C49.9782 18.629 49.9782 18.629 49.9781 18.629H49.9781H49.9781C49.9781 18.629 49.9781 18.629 49.9781 18.629C49.9781 18.629 49.9781 18.629 49.9781 18.629H49.9781H49.9781C49.9781 18.629 49.9781 18.629 49.9781 18.629C49.9781 18.629 49.9781 18.629 49.9781 18.629H49.9781H49.9781V20.629H49.9781H49.9781C49.9781 20.629 49.9781 20.629 49.9781 20.629C49.9781 20.629 49.9781 20.629 49.9781 20.629H49.9781H49.9781C49.9781 20.629 49.9781 20.629 49.9781 20.629C49.9781 20.629 49.9781 20.629 49.9781 20.629H49.9781H49.9781C49.9782 20.629 49.9782 20.629 49.9782 20.629C49.9782 20.629 49.9782 20.629 49.9782 20.629H49.9782H49.9782C49.9782 20.629 49.9782 20.629 49.9782 20.629C49.9782 20.629 49.9782 20.629 49.9782 20.629C49.9782 20.629 49.9782 20.629 49.9782 20.629H49.9782C49.9782 20.629 49.9782 20.629 49.9782 20.629C49.9782 20.629 49.9782 20.629 49.9782 20.629C49.9782 20.629 49.9782 20.629 49.9782 20.629H49.9782C49.9782 20.629 49.9782 20.629 49.9782 20.629C49.9782 20.629 49.9782 20.629 49.9782 20.629C49.9782 20.629 49.9782 20.629 49.9782 20.629H49.9782C49.9782 20.629 49.9782 20.629 49.9782 20.629C49.9782 20.629 49.9782 20.629 49.9782 20.629C49.9782 20.629 49.9782 20.629 49.9782 20.629H49.9782C49.9782 20.629 49.9782 20.629 49.9782 20.629C49.9783 20.629 49.9783 20.629 49.9783 20.629C49.9783 20.629 49.9783 20.629 49.9783 20.629H49.9783C49.9783 20.629 49.9783 20.629 49.9783 20.629C49.9783 20.629 49.9783 20.629 49.9783 20.629C49.9783 20.629 49.9783 20.629 49.9783 20.629H49.9783C49.9783 20.629 49.9783 20.629 49.9783 20.629C49.9783 20.629 49.9783 20.629 49.9783 20.629C49.9783 20.629 49.9783 20.629 49.9783 20.629H49.9783C49.9783 20.629 49.9783 20.629 49.9783 20.629C49.9783 20.629 49.9783 20.629 49.9783 20.629C49.9783 20.629 49.9783 20.629 49.9783 20.629H49.9783C49.9783 20.629 49.9783 20.629 49.9783 20.629C49.9783 20.629 49.9783 20.629 49.9783 20.629C49.9783 20.629 49.9783 20.629 49.9783 20.629H49.9783C49.9783 20.629 49.9783 20.629 49.9783 20.629C49.9783 20.629 49.9783 20.629 49.9784 20.629C49.9784 20.629 49.9784 20.629 49.9784 20.629H49.9784C49.9784 20.629 49.9784 20.629 49.9784 20.629C49.9784 20.629 49.9784 20.629 49.9784 20.629C49.9784 20.629 49.9784 20.629 49.9784 20.629H49.9784C49.9784 20.629 49.9784 20.629 49.9784 20.629C49.9784 20.629 49.9784 20.629 49.9784 20.629C49.9784 20.629 49.9784 20.629 49.9784 20.629H49.9784C49.9784 20.629 49.9784 20.629 49.9784 20.629C49.9784 20.629 49.9784 20.629 49.9784 20.629C49.9784 20.629 49.9784 20.629 49.9784 20.629H49.9784H49.9784C49.9784 20.629 49.9784 20.629 49.9784 20.629C49.9784 20.629 49.9784 20.629 49.9784 20.629H49.9784H49.9784C49.9784 20.629 49.9784 20.629 49.9784 20.629C49.9784 20.629 49.9784 20.629 49.9785 20.629H49.9785H49.9785C49.9785 20.629 49.9785 20.629 49.9785 20.629C49.9785 20.629 49.9785 20.629 49.9785 20.629H49.9785H49.9785C49.9785 20.629 49.9785 20.629 49.9785 20.629C49.9785 20.629 49.9785 20.629 49.9785 20.629H49.9785H49.9785C49.9785 20.629 49.9785 20.629 49.9785 20.629C49.9785 20.629 49.9785 20.629 49.9785 20.629H49.9785H49.9785C49.9785 20.629 49.9785 20.629 49.9785 20.629C49.9785 20.629 49.9785 20.629 49.9785 20.629H49.9785H49.9785C49.9785 20.629 49.9785 20.629 49.9785 20.629C49.9785 20.629 49.9785 20.629 49.9785 20.629H49.9785H49.9786C49.9786 20.629 49.9786 20.629 49.9786 20.629C49.9786 20.629 49.9786 20.629 49.9786 20.629H49.9786H49.9786C49.9786 20.629 49.9786 20.629 49.9786 20.629C49.9786 20.629 49.9786 20.629 49.9786 20.629H49.9786H49.9786C49.9786 20.629 49.9786 20.629 49.9786 20.629C49.9786 20.629 49.9786 20.629 49.9786 20.629H49.9786H49.9786C49.9786 20.629 49.9786 20.629 49.9786 20.629C49.9786 20.629 49.9786 20.629 49.9786 20.629H49.9786H49.9786C49.9786 20.629 49.9786 20.629 49.9786 20.629C49.9786 20.629 49.9786 20.629 49.9786 20.629H49.9786H49.9786C49.9787 20.629 49.9787 20.629 49.9787 20.629C49.9787 20.629 49.9787 20.629 49.9787 20.629H49.9787H49.9787C49.9787 20.629 49.9787 20.629 49.9787 20.629C49.9787 20.629 49.9787 20.629 49.9787 20.629H49.9787H49.9787C49.9787 20.629 49.9787 20.629 49.9787 20.629C49.9787 20.629 49.9787 20.629 49.9787 20.629H49.9787H49.9787C49.9787 20.629 49.9787 20.629 49.9787 20.629C49.9787 20.629 49.9787 20.629 49.9787 20.629H49.9787H49.9787C49.9787 20.629 49.9787 20.629 49.9787 20.629C49.9787 20.629 49.9787 20.629 49.9787 20.629H49.9787H49.9787C49.9787 20.629 49.9787 20.629 49.9787 20.629C49.9788 20.629 49.9788 20.629 49.9788 20.629H49.9788H49.9788C49.9788 20.629 49.9788 20.629 49.9788 20.629C49.9788 20.629 49.9788 20.629 49.9788 20.629H49.9788H49.9788C49.9788 20.629 49.9788 20.629 49.9788 20.629C49.9788 20.629 49.9788 20.629 49.9788 20.629H49.9788H49.9788C49.9788 20.629 49.9788 20.629 49.9788 20.629C49.9788 20.629 49.9788 20.629 49.9788 20.629H49.9788H49.9788C49.9788 20.629 49.9788 20.629 49.9788 20.629C49.9788 20.629 49.9788 20.629 49.9788 20.629H49.9788H49.9788C49.9788 20.629 49.9788 20.629 49.9788 20.629C49.9788 20.629 49.9788 20.629 49.9789 20.629C49.9789 20.629 49.9789 20.629 49.9789 20.629H49.9789C49.9789 20.629 49.9789 20.629 49.9789 20.629C49.9789 20.629 49.9789 20.629 49.9789 20.629C49.9789 20.629 49.9789 20.629 49.9789 20.629H49.9789C49.9789 20.629 49.9789 20.629 49.9789 20.629C49.9789 20.629 49.9789 20.629 49.9789 20.629C49.9789 20.629 49.9789 20.629 49.9789 20.629H49.9789C49.9789 20.629 49.9789 20.629 49.9789 20.629C49.9789 20.629 49.9789 20.629 49.9789 20.629C49.9789 20.629 49.9789 20.629 49.9789 20.629H49.9789C49.9789 20.629 49.9789 20.629 49.9789 20.629C49.9789 20.629 49.9789 20.629 49.9789 20.629C49.9789 20.629 49.9789 20.629 49.9789 20.629H49.9789C49.9789 20.629 49.9789 20.629 49.9789 20.629C49.9789 20.629 49.9789 20.629 49.9789 20.629C49.9789 20.629 49.9789 20.629 49.979 20.629H49.979C49.979 20.629 49.979 20.629 49.979 20.629C49.979 20.629 49.979 20.629 49.979 20.629C49.979 20.629 49.979 20.629 49.979 20.629H49.979C49.979 20.629 49.979 20.629 49.979 20.629C49.979 20.629 49.979 20.629 49.979 20.629C49.979 20.629 49.979 20.629 49.979 20.629H49.979C49.979 20.629 49.979 20.629 49.979 20.629C49.979 20.629 49.979 20.629 49.979 20.629C49.979 20.629 49.979 20.629 49.979 20.629H49.979C49.979 20.629 49.979 20.629 49.979 20.629C49.979 20.629 49.979 20.629 49.979 20.629C49.979 20.629 49.979 20.629 49.979 20.629H49.979C49.979 20.629 49.979 20.629 49.979 20.629C49.979 20.629 49.979 20.629 49.979 20.629C49.979 20.629 49.979 20.629 49.979 20.629H49.979C49.9791 20.629 49.9791 20.629 49.9791 20.629C49.9791 20.629 49.9791 20.629 49.9791 20.629C49.9791 20.629 49.9791 20.629 49.9791 20.629H49.9791H49.9791C49.9791 20.629 49.9791 20.629 49.9791 20.629C49.9791 20.629 49.9791 20.629 49.9791 20.629H49.9791H49.9791C49.9791 20.629 49.9791 20.629 49.9791 20.629C49.9791 20.629 49.9791 20.629 49.9791 20.629H49.9791H49.9791C49.9791 20.629 49.9791 20.629 49.9791 20.629C49.9791 20.629 49.9791 20.629 49.9791 20.629H49.9791H49.9791C49.9791 20.629 49.9791 20.629 49.9791 20.629C49.9791 20.629 49.9791 20.629 49.9791 20.629H49.9791H49.9791C49.9792 20.629 49.9792 20.629 49.9792 20.629C49.9792 20.629 49.9792 20.629 49.9792 20.629H49.9792H49.9792C49.9792 20.629 49.9792 20.629 49.9792 20.629C49.9792 20.629 49.9792 20.629 49.9792 20.629H49.9792H49.9792C49.9792 20.629 49.9792 20.629 49.9792 20.629C49.9792 20.629 49.9792 20.629 49.9792 20.629H49.9792H49.9792C49.9792 20.629 49.9792 20.629 49.9792 20.629C49.9792 20.629 49.9792 20.629 49.9792 20.629H49.9792H49.9792C49.9792 20.629 49.9792 20.629 49.9792 20.629C49.9792 20.629 49.9792 20.629 49.9792 20.629H49.9792H49.9792C49.9792 20.629 49.9792 20.629 49.9793 20.629C49.9793 20.629 49.9793 20.629 49.9793 20.629H49.9793H49.9793C49.9793 20.629 49.9793 20.629 49.9793 20.629C49.9793 20.629 49.9793 20.629 49.9793 20.629H49.9793H49.9793C49.9793 20.629 49.9793 20.629 49.9793 20.629C49.9793 20.629 49.9793 20.629 49.9793 20.629H49.9793H49.9793C49.9793 20.629 49.9793 20.629 49.9793 20.629C49.9793 20.629 49.9793 20.629 49.9793 20.629H49.9793H49.9793C49.9793 20.629 49.9793 20.629 49.9793 20.629C49.9793 20.629 49.9793 20.629 49.9793 20.629H49.9793H49.9793C49.9793 20.629 49.9793 20.629 49.9793 20.629C49.9793 20.629 49.9793 20.629 49.9794 20.629H49.9794H49.9794C49.9794 20.629 49.9794 20.629 49.9794 20.629C49.9794 20.629 49.9794 20.629 49.9794 20.629H49.9794H49.9794C49.9794 20.629 49.9794 20.629 49.9794 20.629C49.9794 20.629 49.9794 20.629 49.9794 20.629H49.9794H49.9794C49.9794 20.629 49.9794 20.629 49.9794 20.629C49.9794 20.629 49.9794 20.629 49.9794 20.629H49.9794H49.9794C49.9794 20.629 49.9794 20.629 49.9794 20.629C49.9794 20.629 49.9794 20.629 49.9794 20.629H49.9794H49.9794C49.9794 20.629 49.9794 20.629 49.9794 20.629C49.9794 20.629 49.9794 20.629 49.9794 20.629H49.9795H49.9795C49.9795 20.629 49.9795 20.629 49.9795 20.629C49.9795 20.629 49.9795 20.629 49.9795 20.629C49.9795 20.629 49.9795 20.629 49.9795 20.629H49.9795C49.9795 20.629 49.9795 20.629 49.9795 20.629C49.9795 20.629 49.9795 20.629 49.9795 20.629C49.9795 20.629 49.9795 20.629 49.9795 20.629H49.9795C49.9795 20.629 49.9795 20.629 49.9795 20.629C49.9795 20.629 49.9795 20.629 49.9795 20.629C49.9795 20.629 49.9795 20.629 49.9795 20.629H49.9795C49.9795 20.629 49.9795 20.629 49.9795 20.629C49.9795 20.629 49.9795 20.629 49.9795 20.629C49.9795 20.629 49.9795 20.629 49.9795 20.629H49.9795C49.9795 20.629 49.9795 20.629 49.9795 20.629C49.9795 20.629 49.9795 20.629 49.9795 20.629C49.9795 20.629 49.9795 20.629 49.9795 20.629H49.9795C49.9796 20.629 49.9796 20.629 49.9796 20.629C49.9796 20.629 49.9796 20.629 49.9796 20.629C49.9796 20.629 49.9796 20.629 49.9796 20.629H49.9796C49.9796 20.629 49.9796 20.629 49.9796 20.629C49.9796 20.629 49.9796 20.629 49.9796 20.629C49.9796 20.629 49.9796 20.629 49.9796 20.629H49.9796C49.9796 20.629 49.9796 20.629 49.9796 20.629C49.9796 20.629 49.9796 20.629 49.9796 20.629C49.9796 20.629 49.9796 20.629 49.9796 20.629H49.9796C49.9796 20.629 49.9796 20.629 49.9796 20.629C49.9796 20.629 49.9796 20.629 49.9796 20.629C49.9796 20.629 49.9796 20.629 49.9796 20.629H49.9796C49.9796 20.629 49.9796 20.629 49.9796 20.629C49.9796 20.629 49.9796 20.629 49.9796 20.629C49.9796 20.629 49.9796 20.629 49.9796 20.629H49.9796C49.9796 20.629 49.9796 20.629 49.9796 20.629C49.9797 20.629 49.9797 20.629 49.9797 20.629C49.9797 20.629 49.9797 20.629 49.9797 20.629H49.9797C49.9797 20.629 49.9797 20.629 49.9797 20.629C49.9797 20.629 49.9797 20.629 49.9797 20.629C49.9797 20.629 49.9797 20.629 49.9797 20.629H49.9797H49.9797C49.9797 20.629 49.9797 20.629 49.9797 20.629C49.9797 20.629 49.9797 20.629 49.9797 20.629H49.9797H49.9797C49.9797 20.629 49.9797 20.629 49.9797 20.629C49.9797 20.629 49.9797 20.629 49.9797 20.629H49.9797H49.9797C49.9797 20.629 49.9797 20.629 49.9797 20.629C49.9797 20.629 49.9797 20.629 49.9797 20.629H49.9797H49.9797C49.9797 20.629 49.9797 20.629 49.9798 20.629C49.9798 20.629 49.9798 20.629 49.9798 20.629H49.9798H49.9798C49.9798 20.629 49.9798 20.629 49.9798 20.629C49.9798 20.629 49.9798 20.629 49.9798 20.629H49.9798H49.9798C49.9798 20.629 49.9798 20.629 49.9798 20.629C49.9798 20.629 49.9798 20.629 49.9798 20.629H49.9798H49.9798C49.9798 20.629 49.9798 20.629 49.9798 20.629C49.9798 20.629 49.9798 20.629 49.9798 20.629H49.9798H49.9798C49.9798 20.629 49.9798 20.629 49.9798 20.629C49.9798 20.629 49.9798 20.629 49.9798 20.629H49.9798H49.9798C49.9798 20.629 49.9798 20.629 49.9798 20.629C49.9798 20.629 49.9798 20.629 49.9799 20.629H49.9799H49.9799C49.9799 20.629 49.9799 20.629 49.9799 20.629C49.9799 20.629 49.9799 20.629 49.9799 20.629H49.9799H49.9799C49.9799 20.629 49.9799 20.629 49.9799 20.629C49.9799 20.629 49.9799 20.629 49.9799 20.629H49.9799H49.9799C49.9799 20.629 49.9799 20.629 49.9799 20.629C49.9799 20.629 49.9799 20.629 49.9799 20.629H49.9799H49.9799C49.9799 20.629 49.9799 20.629 49.9799 20.629C49.9799 20.629 49.9799 20.629 49.9799 20.629H49.9799H49.9799C49.9799 20.629 49.9799 20.629 49.9799 20.629C49.9799 20.629 49.9799 20.629 49.9799 20.629H49.9799H49.98C49.98 20.629 49.98 20.629 49.98 20.629C49.98 20.629 49.98 20.629 49.98 20.629H49.98H49.98C49.98 20.629 49.98 20.629 49.98 20.629C49.98 20.629 49.98 20.629 49.98 20.629H49.98H49.98C49.98 20.629 49.98 20.629 49.98 20.629C49.98 20.629 49.98 20.629 49.98 20.629H49.98H49.98C49.98 20.629 49.98 20.629 49.98 20.629C49.98 20.629 49.98 20.629 49.98 20.629H49.98H49.98C49.98 20.629 49.98 20.629 49.98 20.629C49.98 20.629 49.98 20.629 49.98 20.629H49.98H49.98C49.9801 20.629 49.9801 20.629 49.9801 20.629C49.9801 20.629 49.9801 20.629 49.9801 20.629H49.9801H49.9801C49.9801 20.629 49.9801 20.629 49.9801 20.629C49.9801 20.629 49.9801 20.629 49.9801 20.629H49.9801H49.9801C49.9801 20.629 49.9801 20.629 49.9801 20.629C49.9801 20.629 49.9801 20.629 49.9801 20.629C49.9801 20.629 49.9801 20.629 49.9801 20.629H49.9801C49.9801 20.629 49.9801 20.629 49.9801 20.629C49.9801 20.629 49.9801 20.629 49.9801 20.629C49.9801 20.629 49.9801 20.629 49.9801 20.629H49.9801C49.9801 20.629 49.9801 20.629 49.9801 20.629C49.9801 20.629 49.9801 20.629 49.9801 20.629C49.9801 20.629 49.9801 20.629 49.9801 20.629H49.9801C49.9801 20.629 49.9801 20.629 49.9801 20.629C49.9802 20.629 49.9802 20.629 49.9802 20.629C49.9802 20.629 49.9802 20.629 49.9802 20.629H49.9802C49.9802 20.629 49.9802 20.629 49.9802 20.629C49.9802 20.629 49.9802 20.629 49.9802 20.629C49.9802 20.629 49.9802 20.629 49.9802 20.629H49.9802C49.9802 20.629 49.9802 20.629 49.9802 20.629C49.9802 20.629 49.9802 20.629 49.9802 20.629C49.9802 20.629 49.9802 20.629 49.9802 20.629H49.9802C49.9802 20.629 49.9802 20.629 49.9802 20.629C49.9802 20.629 49.9802 20.629 49.9802 20.629C49.9802 20.629 49.9802 20.629 49.9802 20.629H49.9802C49.9802 20.629 49.9802 20.629 49.9802 20.629C49.9802 20.629 49.9802 20.629 49.9802 20.629C49.9802 20.629 49.9802 20.629 49.9802 20.629H49.9802C49.9802 20.629 49.9802 20.629 49.9802 20.629C49.9802 20.629 49.9802 20.629 49.9803 20.629C49.9803 20.629 49.9803 20.629 49.9803 20.629H49.9803C49.9803 20.629 49.9803 20.629 49.9803 20.629C49.9803 20.629 49.9803 20.629 49.9803 20.629C49.9803 20.629 49.9803 20.629 49.9803 20.629H49.9803C49.9803 20.629 49.9803 20.629 49.9803 20.629C49.9803 20.629 49.9803 20.629 49.9803 20.629C49.9803 20.629 49.9803 20.629 49.9803 20.629H49.9803C49.9803 20.629 49.9803 20.629 49.9803 20.629C49.9803 20.629 49.9803 20.629 49.9803 20.629C49.9803 20.629 49.9803 20.629 49.9803 20.629H49.9803C49.9803 20.629 49.9803 20.629 49.9803 20.629C49.9803 20.629 49.9803 20.629 49.9803 20.629C49.9803 20.629 49.9803 20.629 49.9803 20.629H49.9803H49.9803C49.9803 20.629 49.9803 20.629 49.9803 20.629C49.9803 20.629 49.9803 20.629 49.9804 20.629H49.9804H49.9804C49.9804 20.629 49.9804 20.629 49.9804 20.629C49.9804 20.629 49.9804 20.629 49.9804 20.629H49.9804H49.9804C49.9804 20.629 49.9804 20.629 49.9804 20.629C49.9804 20.629 49.9804 20.629 49.9804 20.629H49.9804H49.9804C49.9804 20.629 49.9804 20.629 49.9804 20.629C49.9804 20.629 49.9804 20.629 49.9804 20.629H49.9804H49.9804C49.9804 20.629 49.9804 20.629 49.9804 20.629C49.9804 20.629 49.9804 20.629 49.9804 20.629H49.9804H49.9804C49.9804 20.629 49.9804 20.629 49.9804 20.629C49.9804 20.629 49.9804 20.629 49.9804 20.629H49.9804H49.9805C49.9805 20.629 49.9805 20.629 49.9805 20.629C49.9805 20.629 49.9805 20.629 49.9805 20.629H49.9805H49.9805C49.9805 20.629 49.9805 20.629 49.9805 20.629C49.9805 20.629 49.9805 20.629 49.9805 20.629H49.9805H49.9805C49.9805 20.629 49.9805 20.629 49.9805 20.629C49.9805 20.629 49.9805 20.629 49.9805 20.629H49.9805H49.9805C49.9805 20.629 49.9805 20.629 49.9805 20.629C49.9805 20.629 49.9805 20.629 49.9805 20.629H49.9805H49.9805C49.9805 20.629 49.9805 20.629 49.9805 20.629C49.9805 20.629 49.9805 20.629 49.9805 20.629V18.629ZM50.4193 20.5264C50.443 20.5148 50.4669 20.5029 50.4871 20.4925C50.4965 20.4877 50.5125 20.4794 50.5303 20.4695C50.5389 20.4647 50.5548 20.4557 50.5739 20.4439C50.5816 20.4392 50.637 20.4056 50.6987 20.353C50.7146 20.3394 50.8222 20.2508 50.9109 20.1009C50.955 20.0262 51.0538 19.8391 51.0502 19.5778C51.0457 19.255 50.8884 18.975 50.6608 18.7995C50.477 18.6577 50.2946 18.6187 50.2196 18.6058C50.1308 18.5905 50.0588 18.5906 50.0204 18.5918C49.9431 18.594 49.8834 18.605 49.8616 18.6091C49.8112 18.6187 49.7723 18.6303 49.7615 18.6335C49.7448 18.6385 49.7311 18.643 49.7231 18.6457C49.6964 18.6547 49.6688 18.6651 49.6581 18.6691C49.5917 18.6941 49.5137 18.7243 49.4335 18.75L50.0442 20.6545C50.1834 20.6099 50.3177 20.5578 50.3625 20.541C50.3796 20.5346 50.3734 20.5371 50.3604 20.5414C50.3558 20.543 50.345 20.5466 50.3308 20.5508C50.3223 20.5533 50.2853 20.5644 50.2363 20.5737C50.2152 20.5777 50.1561 20.5886 50.0793 20.5909C50.0411 20.592 49.9692 20.5921 49.8805 20.5769C49.8057 20.564 49.6234 20.525 49.4396 20.3833C49.2121 20.2079 49.0548 19.9279 49.0504 19.6052C49.0468 19.344 49.1455 19.157 49.1896 19.0824C49.2781 18.9328 49.3854 18.8444 49.4009 18.8312C49.4618 18.7793 49.5158 18.7467 49.5214 18.7433C49.5384 18.7327 49.5518 18.7252 49.5571 18.7223C49.5683 18.716 49.5753 18.7125 49.573 18.7137C49.5698 18.7153 49.5596 18.7205 49.5369 18.7316L50.4193 20.5264ZM49.4335 18.75C49.2188 18.8189 48.9151 18.9135 48.5547 19.026L49.1506 20.9352C49.5066 20.824 49.8201 20.7264 50.0442 20.6545L49.4335 18.75ZM48.5547 19.026C47.8352 19.2505 46.8866 19.5515 45.8892 19.9256L46.5915 21.7982C47.5333 21.445 48.4371 21.1578 49.1506 20.9352L48.5547 19.026ZM45.8892 19.9256C44.0424 20.6182 41.5274 21.4127 40.0404 23.7709L41.7322 24.8377C42.7902 23.1597 44.5597 22.5602 46.5915 21.7982L45.8892 19.9256ZM40.0404 23.7709C38.4659 26.2679 36.6933 29.9274 37.1557 34.0591L39.1433 33.8366C38.7575 30.3895 40.234 27.2136 41.7322 24.8377L40.0404 23.7709ZM37.1557 34.0587C37.6161 38.1853 40.4038 41.5659 42.8371 44.0218L44.2578 42.6142C41.8634 40.1974 39.5228 37.2382 39.1433 33.837L37.1557 34.0587ZM42.8371 44.0218C44.0787 45.275 45.3088 46.3253 46.2991 47.1026L47.534 45.5294C46.5961 44.7932 45.4305 43.7978 44.2578 42.6142L42.8371 44.0218ZM46.2991 47.1026C46.7953 47.4921 47.2327 47.8133 47.5921 48.064L48.7362 46.4235C48.409 46.1953 48.0019 45.8967 47.534 45.5294L46.2991 47.1026ZM47.5921 48.064C47.9181 48.2913 48.1558 48.4703 48.5866 48.6853L49.4799 46.8959C49.2066 46.7595 49.0968 46.675 48.7362 46.4235L47.5921 48.064ZM48.5869 48.6855C49.2863 49.0344 49.7642 49.7443 49.7642 50.5885H51.7642C51.7642 48.9508 50.8253 47.5671 49.4797 46.8958L48.5869 48.6855ZM49.7642 50.5885C49.7642 50.5353 49.7869 50.4282 49.8829 50.3322C49.979 50.2361 50.086 50.2135 50.1392 50.2135V52.2135C50.5612 52.2135 50.9808 52.0627 51.2971 51.7464C51.6135 51.43 51.7642 51.0105 51.7642 50.5885H49.7642ZM50.1392 50.2135H40.6959V52.2135H50.1392V50.2135ZM41.6847 51.3624C41.713 51.1747 41.7618 50.8829 41.7618 50.5738H39.7618C39.7618 50.7019 39.7422 50.8312 39.707 51.0646L41.6847 51.3624ZM41.7618 50.5738C41.7618 46.8448 39.0922 43.8766 35.6781 43.0561L35.2107 45.0007C37.818 45.6273 39.7618 47.8608 39.7618 50.5738H41.7618ZM36.435 43.8912C35.5726 37.6638 30.4073 32.7135 23.8868 32.7135V34.7135C29.3333 34.7135 33.7178 38.8507 34.4539 44.1656L36.435 43.8912ZM23.8868 32.7135H22.6368V34.7135H23.8868V32.7135ZM22.6509 32.7136C21.6141 32.6989 20.6498 33.2436 20.1271 34.1392L21.8544 35.1473C22.0135 34.8747 22.3071 34.7089 22.6227 34.7134L22.6509 32.7136ZM20.1271 34.1392C19.6044 35.0347 19.6044 36.1423 20.1271 37.0378L21.8544 36.0296C21.6953 35.757 21.6953 35.4199 21.8544 35.1473L20.1271 34.1392ZM20.1271 37.0378C20.6498 37.9333 21.6141 38.478 22.6509 38.4634L22.6227 36.4636C22.3071 36.468 22.0135 36.3022 21.8544 36.0296L20.1271 37.0378ZM22.6368 38.4635H23.8868V36.4635H22.6368V38.4635ZM23.8868 38.4635C27.827 38.4635 30.9789 41.6097 31.002 45.548L33.002 45.5362C32.9724 40.5025 28.9316 36.4635 23.8868 36.4635V38.4635ZM31.0023 45.5186C30.9931 45.9079 31.0632 46.2951 31.2082 46.6566L33.0644 45.912C33.0203 45.802 32.999 45.6841 33.0017 45.5656L31.0023 45.5186ZM31.1967 46.6267C31.2063 46.6529 31.2163 46.6791 31.2267 46.7052L33.085 45.9659C33.0819 45.9581 33.0788 45.9501 33.0759 45.9419L31.1967 46.6267ZM31.2439 46.746C31.2513 46.7624 31.2588 46.7787 31.2665 46.7949L33.0745 45.9397C33.0722 45.9348 33.0699 45.93 33.0677 45.9251L31.2439 46.746ZM31.2604 46.7817C31.2946 46.8569 31.3321 46.9306 31.3727 47.0026L33.1147 46.0201C33.1024 45.9982 33.091 45.9758 33.0806 45.9529L31.2604 46.7817ZM31.3664 46.9912C31.8883 47.9453 32.9037 48.5233 33.9905 48.4848L33.9198 46.4861C33.589 46.4978 33.2799 46.3218 33.121 46.0314L31.3664 46.9912ZM33.936 48.4853C35.1148 48.5079 36.0118 49.4127 36.0118 50.5738H38.0118C38.0118 48.2966 36.2158 46.5286 33.9743 46.4856L33.936 48.4853ZM36.0118 50.5738C36.0118 50.5214 36.0341 50.4198 36.1248 50.3287C36.2158 50.2373 36.3191 50.2135 36.3746 50.2135V52.2135C36.8041 52.2135 37.2259 52.0574 37.542 51.7399C37.8578 51.4227 38.0118 51.0013 38.0118 50.5738H36.0118ZM36.3746 50.2135H26.8799V52.2135H36.3746V50.2135ZM26.8799 50.2135C21.5417 50.2135 17.255 45.9267 17.255 40.5885H15.255C15.255 47.0312 20.4372 52.2135 26.8799 52.2135V50.2135ZM17.255 40.5885V39.3629H15.255V40.5885H17.255ZM17.255 39.3629C17.255 36.0928 18.8193 32.73 21.2657 30.1709C23.713 27.6109 26.9377 25.9635 30.1392 25.9635V23.9635C26.2629 23.9635 22.5454 25.938 19.82 28.7889C17.0938 31.6407 15.255 35.4776 15.255 39.3629H17.255ZM30.1433 25.9635C30.404 25.9624 30.6635 25.9259 30.9144 25.8549L30.3699 23.9304C30.2936 23.952 30.2146 23.9632 30.1352 23.9635L30.1433 25.9635ZM30.6838 25.8918C35.5338 25.6895 38.8435 23.4497 40.6508 21.0831L39.0613 19.8692C37.6004 21.7822 34.8339 23.717 30.6005 23.8935L30.6838 25.8918ZM40.6508 21.0831C41.5818 19.864 42.1564 18.6307 42.4989 17.7049C42.6707 17.2405 42.7857 16.8491 42.8586 16.5693C42.8951 16.4292 42.9211 16.3167 42.9385 16.2365C42.9473 16.1964 42.9538 16.1643 42.9584 16.1409C42.9608 16.1292 42.9626 16.1196 42.964 16.1123C42.9647 16.1086 42.9652 16.1055 42.9657 16.103C42.9659 16.1017 42.9661 16.1006 42.9663 16.0996C42.9664 16.0992 42.9665 16.0987 42.9666 16.0984C42.9666 16.0982 42.9666 16.098 42.9666 16.0979C42.9666 16.0978 42.6239 16.6877 41.9825 16.9205V14.9205C41.3411 15.1533 40.9983 15.7432 40.9983 15.7431C40.9984 15.7431 40.9984 15.743 40.9984 15.7429C40.9984 15.7426 40.9985 15.7424 40.9985 15.7422C40.9986 15.7418 40.9986 15.7416 40.9987 15.7414C40.9987 15.7411 40.9987 15.7414 40.9985 15.7421C40.9982 15.7437 40.9975 15.7474 40.9964 15.7532C40.9941 15.7648 40.9901 15.7846 40.9841 15.8122C40.9721 15.8673 40.9524 15.9531 40.9232 16.0651C40.8648 16.2893 40.7691 16.6166 40.6232 17.011C40.3303 17.8028 39.8417 18.8473 39.0613 19.8692L40.6508 21.0831ZM42.9665 16.0984C43.1494 15.0873 42.7788 14.0555 41.9944 13.3917L40.7025 14.9185C40.9413 15.1205 41.0541 15.4347 40.9984 15.7426L42.9665 16.0984ZM41.9944 13.3918C41.2101 12.728 40.1312 12.5332 39.1642 12.8807L39.8407 14.7629C40.1351 14.657 40.4636 14.7164 40.7025 14.9185L41.9944 13.3918ZM39.1642 12.8807C38.1973 13.2283 37.4893 14.0654 37.307 15.0766L39.2752 15.4314C39.3307 15.1236 39.5463 14.8687 39.8407 14.7629L39.1642 12.8807ZM38.2911 15.254C37.3075 15.0736 37.3075 15.0734 37.3076 15.0731C37.3076 15.073 37.3077 15.0727 37.3077 15.0726C37.3077 15.0722 37.3078 15.0719 37.3079 15.0716C37.308 15.071 37.3081 15.0705 37.3081 15.0701C37.3083 15.0693 37.3084 15.0688 37.3084 15.0686C37.3085 15.0683 37.3083 15.0693 37.3078 15.0716C37.3069 15.0761 37.3049 15.0858 37.3017 15.1003C37.2952 15.1293 37.2838 15.1773 37.2664 15.2418C37.2315 15.371 37.1728 15.5651 37.0814 15.8038C36.8979 16.2828 36.5867 16.9308 36.0803 17.5939L37.6698 18.8077C38.3158 17.9618 38.7126 17.1364 38.949 16.5193C39.0675 16.2099 39.1468 15.9502 39.1974 15.7627C39.2227 15.6688 39.2409 15.5927 39.2534 15.5372C39.2596 15.5094 39.2644 15.4867 39.2679 15.4695C39.2696 15.4608 39.271 15.4536 39.2722 15.4477C39.2727 15.4448 39.2732 15.4422 39.2736 15.44C39.2738 15.4389 39.274 15.4378 39.2742 15.4369C39.2743 15.4364 39.2744 15.436 39.2745 15.4356C39.2745 15.4354 39.2746 15.4351 39.2746 15.435C39.2746 15.4347 39.2747 15.4344 38.2911 15.254ZM36.0803 17.5939C35.4485 18.4212 34.2187 19.1961 32.3642 19.6962L32.885 21.6272C34.9736 21.0639 36.671 20.1157 37.6698 18.8077L36.0803 17.5939ZM33.599 20.8865L35.3373 13.3498L33.3884 12.9004L31.6502 20.437L33.599 20.8865ZM35.3372 13.3501C35.8277 11.2261 37.7053 9.74613 39.8841 9.76472L39.9012 7.76479C36.7847 7.7382 34.09 9.86263 33.3885 12.9001L35.3372 13.3501ZM40.8324 8.42301V8.423L38.9529 9.10649L38.9529 9.1065L40.8324 8.42301Z" fill="#E8F7EE" mask="url(#path-1-outside-1_303_1246)"/>
<path d="M41.5 12.875C41.5 12.1156 42.1156 11.5 42.875 11.5C43.6344 11.5 44.25 12.1156 44.25 12.875C44.25 13.6344 43.6344 14.25 42.875 14.25C42.1156 14.25 41.5 13.6344 41.5 12.875Z" fill="#465D59" stroke="#E8F7EE"/>
<path d="M9.01216 74.8937V86.0938H12.3082C13.0922 86.0938 13.8282 85.9817 14.5002 85.7257C15.1722 85.4697 15.7642 85.1177 16.2762 84.6377C16.7722 84.1577 17.1722 83.5817 17.4602 82.8777C17.7482 82.1897 17.8922 81.3898 17.8922 80.4937C17.8922 79.5977 17.7482 78.8137 17.4602 78.1097C17.1722 77.4217 16.7722 76.8457 16.2762 76.3657C15.7642 75.8857 15.1722 75.5337 14.5002 75.2777C13.8282 75.0217 13.0922 74.8937 12.3082 74.8937H9.01216ZM12.2762 84.8617H10.3722V76.1257H12.2762C12.8202 76.1257 13.3322 76.2217 13.8442 76.3817C14.3562 76.5417 14.8042 76.7977 15.1882 77.1497C15.5722 77.5017 15.8762 77.9657 16.1162 78.5097C16.3402 79.0697 16.4682 79.7257 16.4682 80.4937C16.4682 81.2617 16.3402 81.9337 16.1162 82.4777C15.8762 83.0377 15.5722 83.4857 15.1882 83.8377C14.8042 84.1897 14.3562 84.4617 13.8442 84.6217C13.3322 84.7817 12.8202 84.8617 12.2762 84.8617ZM23.2505 86.2218C23.8425 86.2218 24.3865 86.1258 24.8985 85.9177C25.4105 85.7097 25.8425 85.4217 26.2105 85.0537C26.5625 84.6857 26.8505 84.2537 27.0585 83.7418C27.2505 83.2297 27.3625 82.6697 27.3625 82.0617C27.3625 81.4537 27.2505 80.8937 27.0585 80.3817C26.8505 79.8697 26.5625 79.4377 26.2105 79.0697C25.8425 78.7017 25.4105 78.4137 24.8985 78.2057C24.3865 78.0138 23.8425 77.9017 23.2505 77.9017C22.6425 77.9017 22.0985 78.0138 21.6025 78.2057C21.0905 78.4137 20.6585 78.7017 20.3065 79.0697C19.9385 79.4377 19.6505 79.8697 19.4585 80.3817C19.2505 80.8937 19.1545 81.4537 19.1545 82.0617C19.1545 82.6697 19.2505 83.2297 19.4585 83.7418C19.6505 84.2537 19.9385 84.6857 20.3065 85.0537C20.6585 85.4217 21.0905 85.7097 21.6025 85.9177C22.0985 86.1258 22.6425 86.2218 23.2505 86.2218ZM23.2505 85.0697C22.8345 85.0697 22.4505 85.0057 22.1145 84.8457C21.7625 84.7017 21.4745 84.4937 21.2345 84.2217C20.9785 83.9657 20.7865 83.6457 20.6585 83.2777C20.5305 82.9097 20.4665 82.5097 20.4665 82.0617C20.4665 81.6297 20.5305 81.2297 20.6585 80.8617C20.7865 80.4937 20.9785 80.1737 21.2345 79.9017C21.4745 79.6457 21.7625 79.4377 22.1145 79.2777C22.4505 79.1337 22.8345 79.0537 23.2505 79.0537C23.6665 79.0537 24.0345 79.1337 24.3865 79.2777C24.7225 79.4377 25.0105 79.6457 25.2665 79.9017C25.5225 80.1737 25.7145 80.4937 25.8425 80.8617C25.9705 81.2297 26.0505 81.6297 26.0505 82.0617C26.0505 82.5097 25.9705 82.9097 25.8425 83.2777C25.7145 83.6457 25.5225 83.9657 25.2665 84.2217C25.0105 84.4937 24.7225 84.7017 24.3865 84.8457C24.0345 85.0057 23.6665 85.0697 23.2505 85.0697ZM36.4492 78.0297H35.1692V79.2137C35.0412 79.0217 34.8812 78.8457 34.6892 78.6857C34.4972 78.5257 34.2732 78.3977 34.0492 78.2697C33.8092 78.1577 33.5532 78.0617 33.2972 77.9977C33.0412 77.9337 32.7692 77.9017 32.4972 77.9017C31.8572 77.9017 31.2972 78.0138 30.8172 78.2217C30.3372 78.4457 29.9212 78.7337 29.6012 79.1017C29.2812 79.4857 29.0252 79.9177 28.8652 80.4297C28.6892 80.9417 28.6092 81.4857 28.6092 82.0617C28.6092 82.6537 28.6892 83.1977 28.8652 83.7097C29.0252 84.2217 29.2812 84.6537 29.6012 85.0217C29.9212 85.4057 30.3372 85.6937 30.8172 85.9017C31.2972 86.1258 31.8572 86.2218 32.4972 86.2218C33.1052 86.2218 33.6492 86.1098 34.1452 85.8857C34.6252 85.6617 34.9772 85.3577 35.1692 84.9737V86.3978C35.1692 86.9418 34.9932 87.3898 34.6732 87.7418C34.3372 88.0938 33.9052 88.2538 33.3932 88.2538H29.6652V89.3578H33.4732C33.9052 89.3578 34.3052 89.2938 34.6732 89.1498C35.0252 89.0058 35.3452 88.7978 35.6172 88.5418C35.8732 88.2858 36.0812 87.9818 36.2252 87.6298C36.3692 87.2778 36.4492 86.8778 36.4492 86.4458V78.0297ZM32.6092 85.0697C31.7772 85.0697 31.1212 84.7977 30.6412 84.2537C30.1612 83.7097 29.9212 82.9897 29.9212 82.0617C29.9212 81.1497 30.1612 80.4137 30.6412 79.8697C31.1212 79.3257 31.7772 79.0537 32.6092 79.0537C33.0092 79.0537 33.3772 79.1337 33.7132 79.2777C34.0332 79.4217 34.3212 79.6297 34.5452 79.8857C34.7692 80.1417 34.9612 80.4617 35.0892 80.8297C35.2172 81.1977 35.2812 81.6137 35.2812 82.0617C35.2812 82.5257 35.2172 82.9417 35.0892 83.3097C34.9612 83.6777 34.7692 83.9977 34.5452 84.2537C34.3212 84.5097 34.0332 84.7177 33.7132 84.8617C33.3772 85.0057 33.0092 85.0697 32.6092 85.0697ZM41.4185 86.2218C42.3145 86.2218 43.0185 86.0137 43.5625 85.5817C44.1065 85.1657 44.3785 84.5897 44.3785 83.8537C44.3785 83.2457 44.2505 82.7657 44.0265 82.4457C43.7865 82.1257 43.4985 81.9017 43.1465 81.7417C42.7945 81.5817 42.4265 81.4857 42.0105 81.4377C41.5945 81.3898 41.2265 81.3257 40.8745 81.2617C40.5225 81.1977 40.2345 81.0857 40.0105 80.9257C39.7705 80.7657 39.6585 80.5097 39.6585 80.1417C39.6585 79.7897 39.7865 79.5177 40.0745 79.3097C40.3625 79.1017 40.7465 78.9897 41.2265 78.9897C41.4025 78.9897 41.5945 79.0217 41.8025 79.0697C42.0105 79.1177 42.2025 79.1977 42.3785 79.2937C42.5545 79.4057 42.7145 79.5497 42.8425 79.7257C42.9705 79.9017 43.0505 80.1097 43.0825 80.3657H44.3305C44.2665 79.6297 43.9625 79.0217 43.4185 78.5737C42.8745 78.1257 42.1545 77.9017 41.2585 77.9017C40.8265 77.9017 40.4425 77.9657 40.0905 78.0617C39.7385 78.1737 39.4505 78.3337 39.1945 78.5257C38.9385 78.7177 38.7465 78.9577 38.6185 79.2297C38.4745 79.5177 38.4105 79.8217 38.4105 80.1577C38.4105 80.7337 38.5225 81.1817 38.7465 81.4857C38.9705 81.7897 39.2745 82.0137 39.6265 82.1417C39.9785 82.2857 40.3465 82.3817 40.7465 82.4297C41.1465 82.4937 41.5305 82.5577 41.8825 82.6377C42.2345 82.7177 42.5225 82.8457 42.7465 83.0217C42.9705 83.1977 43.0985 83.4857 43.0985 83.8857C43.0985 84.2217 42.9385 84.5097 42.6345 84.7497C42.3305 84.9897 41.9305 85.1017 41.4185 85.1017C40.8265 85.1017 40.3625 84.9737 40.0265 84.7017C39.6745 84.4297 39.4825 84.0297 39.4345 83.5017H38.2025C38.2665 84.3497 38.5705 85.0217 39.1465 85.5017C39.7225 85.9817 40.4745 86.2218 41.4185 86.2218Z" fill="black"/>
<path d="M179.25 50.6249C179.25 47.7804 177.625 45.2886 175.244 44.065L175.24 44.0617L175.168 44.0255C175.152 44.0174 175.133 44.0082 175.112 43.9979C174.638 43.763 172.992 42.9471 171.402 41.0758C169.801 39.1899 168.237 36.2067 168.037 31.608C174.343 30.7274 179.25 25.2989 179.25 18.7474V9.9315C179.25 6.27726 175.128 3.88824 171.957 5.70084C171.743 5.82255 171.549 5.97681 171.382 6.15807L171.382 6.15905L168.327 9.49986H164.171L161.119 6.15919L161.118 6.15807C160.951 5.97677 160.757 5.82249 160.543 5.70076C159.75 5.24735 158.895 5.0562 158.06 5.08363C155.584 5.16494 153.25 7.17702 153.25 9.9315V18.3836C153.25 18.7311 153.322 19.0484 153.39 19.3195C153.404 19.373 153.417 19.4243 153.43 19.4737C153.432 19.4825 153.434 19.4912 153.436 19.4999H151.875C145.283 19.4999 139.38 22.5744 135.5 27.3459V24.3749C135.5 20.75 136.719 17.1835 138.754 14.6197C140.783 12.0622 143.508 10.5009 146.872 10.4999C147.727 10.5106 148.522 10.0608 148.953 9.32214C149.385 8.58235 149.385 7.66737 148.953 6.92758C148.522 6.18886 147.727 5.7391 146.872 5.74986C141.956 5.75096 137.808 8.17044 135.033 11.6666C132.264 15.1569 130.75 19.716 130.75 24.3749V40.6223C130.749 40.7035 130.753 40.7847 130.76 40.8655C130.879 48.214 136.367 54.2791 143.458 55.3242C143.75 55.4431 144.062 55.5029 144.378 55.4999H174.375C177.045 55.4999 179.25 53.2947 179.25 50.6249ZM173.043 48.274L173.119 48.3122C173.94 48.7541 174.5 49.612 174.5 50.6249C174.5 50.6904 174.479 50.715 174.472 50.7221C174.465 50.7292 174.441 50.7499 174.375 50.7499H161.746C161.749 50.7039 161.75 50.6572 161.75 50.6102C161.75 47.3227 159.556 44.5263 156.569 43.5902C155.592 37.7419 150.495 33.2499 144.375 33.2499H143.128C142.273 33.2391 141.478 33.6889 141.047 34.4276C140.615 35.1674 140.615 36.0824 141.047 36.8221C141.478 37.5608 142.273 38.0105 143.128 37.9999H144.375C148.562 37.9999 151.92 41.3199 151.993 45.489C151.972 45.8404 152.031 46.1918 152.163 46.518L152.171 46.5389L152.176 46.5522L152.181 46.5651C152.191 46.5884 152.202 46.6114 152.213 46.6343C152.628 47.5463 153.57 48.0988 154.566 48.0183C155.945 48.1076 157 49.2091 157 50.6102C157 50.6764 156.979 50.7054 156.967 50.7169C156.956 50.7285 156.926 50.7499 156.86 50.7499H145.625C140.011 50.7499 135.5 46.2392 135.5 40.6249C135.5 31.6112 142.861 24.2499 151.875 24.2499H154.372C154.477 24.2509 154.581 24.245 154.685 24.2323C156.356 27.7156 159.419 30.4581 163.276 31.3975C163.641 43.2031 172.148 47.8253 173.043 48.274ZM174.485 9.81143C174.493 9.8367 174.5 9.87568 174.5 9.9315V18.7474C174.5 23.5099 170.544 27.2957 165.697 26.9814C161.362 26.7003 158 22.8603 158 18.3837V9.9315C158 9.87388 158.009 9.84167 158.014 9.82757C158.019 9.82699 158.026 9.82663 158.035 9.82699L161.372 13.4768C161.822 13.9693 162.458 14.2498 163.125 14.2499H169.375C170.042 14.2498 170.679 13.9693 171.129 13.4768L174.478 9.81325C174.48 9.81262 174.483 9.81202 174.485 9.81143ZM161.875 15.7499C160.563 15.7499 159.5 16.8132 159.5 18.1249C159.5 19.4365 160.563 20.4999 161.875 20.4999C163.187 20.4999 164.25 19.4365 164.25 18.1249C164.25 16.8132 163.187 15.7499 161.875 15.7499ZM170.625 15.7499C169.313 15.7499 168.25 16.8132 168.25 18.1249C168.25 19.4365 169.313 20.4999 170.625 20.4999C171.937 20.4999 173 19.4365 173 18.1249C173 16.8132 171.937 15.7499 170.625 15.7499Z" fill="#465D59" stroke="#E8F7EE"/>
<path d="M140.843 86.2218C141.451 86.2218 142.043 86.1418 142.587 85.9497C143.131 85.7737 143.627 85.5177 144.043 85.1977C144.459 84.8777 144.795 84.5097 145.067 84.0617C145.323 83.6137 145.499 83.1337 145.563 82.6057H144.155C144.107 82.9577 143.995 83.2777 143.803 83.5657C143.611 83.8537 143.371 84.1097 143.083 84.3177C142.795 84.5417 142.459 84.7017 142.075 84.8137C141.691 84.9417 141.275 84.9897 140.843 84.9897C140.251 84.9897 139.707 84.8937 139.227 84.7017C138.747 84.5097 138.331 84.2217 137.979 83.8377C137.627 83.4537 137.339 82.9897 137.147 82.4297C136.955 81.8698 136.859 81.2297 136.859 80.4937C136.859 79.7737 136.955 79.1337 137.147 78.5737C137.339 78.0138 137.627 77.5497 137.979 77.1657C138.331 76.7817 138.747 76.4937 139.227 76.3017C139.707 76.1097 140.251 75.9977 140.843 75.9977C141.259 75.9977 141.659 76.0617 142.043 76.1737C142.427 76.3017 142.763 76.4617 143.051 76.6697C143.339 76.8937 143.595 77.1497 143.787 77.4377C143.979 77.7257 144.091 78.0457 144.139 78.3817H145.579C145.499 77.8698 145.323 77.3897 145.051 76.9417C144.763 76.4937 144.411 76.1097 143.995 75.7897C143.579 75.4697 143.099 75.2297 142.555 75.0377C142.011 74.8617 141.451 74.7657 140.843 74.7657C140.139 74.7657 139.467 74.8937 138.827 75.1177C138.171 75.3577 137.595 75.7097 137.099 76.1897C136.587 76.6697 136.187 77.2617 135.899 77.9657C135.595 78.6857 135.451 79.5337 135.451 80.4937C135.451 81.4537 135.595 82.3017 135.899 83.0217C136.187 83.7418 136.587 84.3337 137.099 84.8137C137.595 85.2937 138.171 85.6457 138.811 85.8697C139.451 86.1098 140.139 86.2218 140.843 86.2218ZM150.283 77.9017C149.835 77.9017 149.403 77.9817 149.003 78.1097C148.603 78.2537 148.251 78.4457 147.947 78.6857C147.627 78.9257 147.387 79.2137 147.195 79.5337C147.003 79.8697 146.891 80.2217 146.859 80.6057H148.075C148.091 80.3817 148.155 80.1737 148.283 79.9817C148.395 79.7897 148.555 79.6297 148.747 79.4697C148.939 79.3257 149.163 79.2137 149.419 79.1177C149.675 79.0377 149.947 78.9897 150.251 78.9897C150.939 78.9897 151.467 79.1657 151.851 79.5017C152.219 79.8537 152.411 80.3017 152.411 80.8457C152.411 80.9737 152.363 81.0857 152.283 81.1657C152.203 81.2457 152.075 81.2777 151.899 81.2777H150.075C149.579 81.2777 149.131 81.3417 148.747 81.4537C148.347 81.5817 148.011 81.7417 147.739 81.9657C147.451 82.1897 147.243 82.4457 147.083 82.7497C146.923 83.0697 146.859 83.4057 146.859 83.7897C146.859 84.1577 146.923 84.4937 147.051 84.7977C147.179 85.1017 147.371 85.3577 147.627 85.5658C147.867 85.7737 148.155 85.9337 148.507 86.0457C148.843 86.1738 149.227 86.2218 149.659 86.2218C150.283 86.2218 150.843 86.0938 151.339 85.8217C151.835 85.5497 152.187 85.1817 152.411 84.7017V86.0938H153.691V80.8937C153.691 80.4457 153.611 80.0457 153.451 79.6777C153.291 79.3097 153.051 78.9897 152.763 78.7337C152.475 78.4777 152.107 78.2697 151.691 78.1257C151.275 77.9817 150.795 77.9017 150.283 77.9017ZM149.851 85.1337C149.339 85.1337 148.923 85.0217 148.619 84.7657C148.315 84.5257 148.171 84.1897 148.171 83.7737C148.171 83.2937 148.347 82.9257 148.699 82.6537C149.051 82.3977 149.547 82.2537 150.155 82.2537H152.411V82.4617C152.411 83.2937 152.187 83.9497 151.739 84.4297C151.291 84.9097 150.651 85.1337 149.851 85.1337ZM157.698 75.4537H156.418V78.0297H154.738V79.1657H156.418V83.5657C156.418 84.3657 156.642 84.9737 157.106 85.4217C157.554 85.8697 158.178 86.0938 158.946 86.0938H160.178V84.9577H158.994C158.594 84.9577 158.274 84.8457 158.05 84.5897C157.81 84.3337 157.698 83.9818 157.698 83.5337V79.1657H160.178V78.0297H157.698V75.4537ZM164.447 86.2218C165.343 86.2218 166.047 86.0137 166.591 85.5817C167.135 85.1657 167.407 84.5897 167.407 83.8537C167.407 83.2457 167.279 82.7657 167.055 82.4457C166.815 82.1257 166.527 81.9017 166.175 81.7417C165.823 81.5817 165.455 81.4857 165.039 81.4377C164.623 81.3898 164.255 81.3257 163.903 81.2617C163.551 81.1977 163.263 81.0857 163.039 80.9257C162.799 80.7657 162.687 80.5097 162.687 80.1417C162.687 79.7897 162.815 79.5177 163.103 79.3097C163.391 79.1017 163.775 78.9897 164.255 78.9897C164.431 78.9897 164.623 79.0217 164.831 79.0697C165.039 79.1177 165.231 79.1977 165.407 79.2937C165.583 79.4057 165.743 79.5497 165.871 79.7257C165.999 79.9017 166.079 80.1097 166.111 80.3657H167.359C167.295 79.6297 166.991 79.0217 166.447 78.5737C165.903 78.1257 165.183 77.9017 164.287 77.9017C163.855 77.9017 163.471 77.9657 163.119 78.0617C162.767 78.1737 162.479 78.3337 162.223 78.5257C161.967 78.7177 161.775 78.9577 161.647 79.2297C161.503 79.5177 161.439 79.8217 161.439 80.1577C161.439 80.7337 161.551 81.1817 161.775 81.4857C161.999 81.7897 162.303 82.0137 162.655 82.1417C163.007 82.2857 163.375 82.3817 163.775 82.4297C164.175 82.4937 164.559 82.5577 164.911 82.6377C165.263 82.7177 165.551 82.8457 165.775 83.0217C165.999 83.1977 166.127 83.4857 166.127 83.8857C166.127 84.2217 165.967 84.5097 165.663 84.7497C165.359 84.9897 164.959 85.1017 164.447 85.1017C163.855 85.1017 163.391 84.9737 163.055 84.7017C162.703 84.4297 162.511 84.0297 162.463 83.5017H161.231C161.295 84.3497 161.599 85.0217 162.175 85.5017C162.751 85.9817 163.503 86.2218 164.447 86.2218Z" fill="black"/>
<path d="M252.163 37.2988L252.656 37.2192L252.163 37.2988C252.301 38.1569 252.465 38.9362 252.791 39.6905L253.248 39.4928L252.791 39.6905C252.952 40.0634 253.157 40.4848 253.607 40.9276C254.066 41.3799 254.979 41.8489 255.917 41.7329H255.921L255.956 41.7281L255.971 41.7259C257.661 41.4893 259.739 41.1983 261.667 40.1944C262.238 39.8966 262.768 39.4955 263.25 39.0311V44.7925C263.25 46.2678 263.72 47.8767 264.947 49.1035C265.98 50.1369 267.735 50.9365 269.821 50.7469C271.855 50.562 274.127 49.5982 276.908 47.6262C277.353 47.7521 277.801 47.8634 278.25 47.9652V49.375C278.25 52.7355 281.015 55.5 284.375 55.5C289.895 55.5 294.498 51.4414 295.348 46.1444C300.112 43.8808 304.468 40.0257 307.694 34.2905L307.258 34.0454L307.694 34.2905C308.663 32.5678 308.533 30.5939 307.953 28.844C307.371 27.0915 306.312 25.3748 304.931 23.7091C302.316 20.5567 298.449 17.5349 293.897 15.4647C291.844 9.79481 285.91 7.17775 281.442 5.86308C280.859 5.69133 280.273 5.59602 279.693 5.57217C279.114 5.54832 278.543 5.59597 277.991 5.70588C274.685 6.36378 272 9.29228 272 12.9467V13.7504C270.304 12.7994 268.727 12.1591 267.321 12.0313C265.236 11.8418 263.481 12.6385 262.447 13.6723C261.22 14.8993 260.75 16.5107 260.75 17.9858V21.9522C259.098 21.2277 257.393 20.9409 255.903 20.7656C254.93 20.651 254.024 21.1598 253.58 21.6166C253.15 22.0583 252.951 22.4742 252.794 22.8448C252.478 23.5928 252.314 24.3685 252.175 25.2279C251.895 26.9602 251.771 29.1138 251.768 31.2663C251.765 33.419 251.884 35.5675 252.163 37.2988ZM279.455 10.3062C279.456 10.3063 279.457 10.3063 279.459 10.3064C279.667 10.3173 279.881 10.354 280.101 10.4186L280.101 10.4186C282.165 11.0262 284.295 11.922 286.035 13.123C284.406 12.8903 282.738 12.81 281.052 12.9265C279.639 13.0241 278.216 13.2563 276.795 13.6435C276.78 13.6476 276.765 13.6517 276.75 13.656V12.9467C276.75 11.3656 278.004 10.2326 279.455 10.3062ZM266.891 16.7626L266.936 16.2646L266.891 16.7626C267.38 16.8071 268.159 17.0191 269.226 17.5511C267.938 18.5343 266.694 19.6901 265.5 21.0211V17.9858C265.5 17.5163 265.662 17.1736 265.805 17.0308L265.452 16.6772L265.805 17.0308C265.903 16.9331 265.961 16.8819 266.031 16.8432C266.095 16.8076 266.196 16.7687 266.382 16.7531C266.509 16.7425 266.673 16.7428 266.891 16.7626ZM282.377 17.6362C284.478 17.6426 286.559 18.1058 288.619 18.7473C287.849 20.0956 287.005 21.9194 286.407 24.302C285.233 28.977 285.295 35.5627 288.831 43.3198C286.807 43.7695 284.777 43.9901 282.775 43.8565C279.781 43.6569 276.951 42.7194 274.344 41.4241C269.759 31.2564 272.684 23.3397 274.741 19.5238C275.837 18.9619 276.941 18.5273 278.044 18.2265C279.151 17.9248 280.268 17.7433 281.389 17.6668C281.717 17.6444 282.047 17.6352 282.376 17.6362H282.377ZM293.084 20.5025C296.455 22.242 299.413 24.4974 301.275 26.7425C302.387 28.0823 303.121 29.3675 303.444 30.3405C303.771 31.3267 303.648 31.7955 303.556 31.9594C300.783 36.8898 297.188 39.9489 293.316 41.7729C289.988 34.7484 290.062 29.254 291.015 25.4611C291.67 22.8514 292.5 21.3636 293.084 20.5025ZM265.404 28.9726C266.177 27.6634 266.984 26.5326 267.811 25.5124C267.185 28.672 266.986 32.3364 267.807 36.4686C266.87 35.3981 266.08 34.262 265.521 33.0328L265.521 33.0324C265.078 32.0614 264.043 31.5047 262.989 31.6712C261.935 31.8378 261.121 32.6867 261 33.7467L261 33.747C260.918 34.4623 260.755 34.8837 260.532 35.1828C260.307 35.4859 259.983 35.7159 259.471 35.9823C259.138 36.1561 258.684 36.2936 258.141 36.4147C257.739 36.5045 257.311 36.5805 256.871 36.6572C256.865 36.6241 256.858 36.5869 256.851 36.544C256.638 35.2186 256.515 33.2462 256.518 31.2727C256.521 29.2996 256.65 27.3226 256.866 25.9854C256.875 25.9288 256.883 25.8827 256.891 25.8431C257.748 25.993 258.519 26.1363 259.105 26.4251C260.091 26.9106 260.724 27.4887 261.133 28.5919L261.133 28.5923C261.452 29.4504 262.236 30.0485 263.148 30.1297C264.06 30.2109 264.938 29.7608 265.404 28.9727L265.404 28.9726ZM295.625 27C294.313 27 293.25 28.0633 293.25 29.375C293.25 30.6866 294.313 31.75 295.625 31.75C296.937 31.75 298 30.6866 298 29.375C298 28.0633 296.937 27 295.625 27ZM268 44.7924V43.0918C269.072 43.9349 270.22 44.6941 271.43 45.3616C270.513 45.7913 269.83 45.9757 269.391 46.0157C268.952 46.0555 268.732 46.0155 268.611 45.9706C268.5 45.9295 268.432 45.8715 268.305 45.7451C268.162 45.6018 268 45.2613 268 44.7924ZM283 48.6269C285.163 48.7255 287.364 48.5529 289.544 48.0971C288.393 49.704 286.517 50.75 284.375 50.75C283.593 50.75 283 50.157 283 49.375V48.6269Z" fill="#465D59" stroke="#E8F7EE"/>
<path d="M262.878 74.8937V86.0938H264.238V81.0537H268.83V79.8217H264.238V76.1257H269.886V74.8937H262.878ZM272.892 74.7177H271.42V76.5097H272.892V74.7177ZM271.516 78.0297V86.0938H272.796V78.0297H271.516ZM277.706 86.2218C278.602 86.2218 279.306 86.0137 279.85 85.5817C280.394 85.1657 280.666 84.5897 280.666 83.8537C280.666 83.2457 280.538 82.7657 280.314 82.4457C280.074 82.1257 279.786 81.9017 279.434 81.7417C279.082 81.5817 278.714 81.4857 278.298 81.4377C277.882 81.3898 277.514 81.3257 277.162 81.2617C276.81 81.1977 276.522 81.0857 276.298 80.9257C276.058 80.7657 275.946 80.5097 275.946 80.1417C275.946 79.7897 276.074 79.5177 276.362 79.3097C276.65 79.1017 277.034 78.9897 277.514 78.9897C277.69 78.9897 277.882 79.0217 278.09 79.0697C278.298 79.1177 278.49 79.1977 278.666 79.2937C278.842 79.4057 279.002 79.5497 279.13 79.7257C279.258 79.9017 279.338 80.1097 279.37 80.3657H280.618C280.554 79.6297 280.25 79.0217 279.706 78.5737C279.162 78.1257 278.442 77.9017 277.546 77.9017C277.114 77.9017 276.73 77.9657 276.378 78.0617C276.026 78.1737 275.738 78.3337 275.482 78.5257C275.226 78.7177 275.034 78.9577 274.906 79.2297C274.762 79.5177 274.698 79.8217 274.698 80.1577C274.698 80.7337 274.81 81.1817 275.034 81.4857C275.258 81.7897 275.562 82.0137 275.914 82.1417C276.266 82.2857 276.634 82.3817 277.034 82.4297C277.434 82.4937 277.818 82.5577 278.17 82.6377C278.522 82.7177 278.81 82.8457 279.034 83.0217C279.258 83.1977 279.386 83.4857 279.386 83.8857C279.386 84.2217 279.226 84.5097 278.922 84.7497C278.618 84.9897 278.218 85.1017 277.706 85.1017C277.114 85.1017 276.65 84.9737 276.314 84.7017C275.962 84.4297 275.77 84.0297 275.722 83.5017H274.49C274.554 84.3497 274.858 85.0217 275.434 85.5017C276.01 85.9817 276.762 86.2218 277.706 86.2218ZM282.486 74.7177V86.0938H283.766V81.7417C283.766 81.3577 283.814 80.9897 283.942 80.6537C284.054 80.3337 284.214 80.0457 284.422 79.8057C284.63 79.5817 284.886 79.3897 285.174 79.2617C285.462 79.1337 285.782 79.0697 286.134 79.0697C286.742 79.0697 287.222 79.2937 287.59 79.7097C287.958 80.1257 288.15 80.6857 288.15 81.3737V86.0938H289.43V81.1657C289.43 80.6857 289.35 80.2377 289.206 79.8377C289.062 79.4377 288.854 79.0857 288.598 78.7977C288.342 78.5097 288.022 78.3017 287.654 78.1417C287.286 77.9817 286.87 77.9017 286.422 77.9017C285.798 77.9017 285.254 78.0457 284.79 78.3177C284.31 78.6057 283.974 79.0217 283.766 79.5817V74.7177H282.486Z" fill="black"/>
<path d="M391.934 7.99995L391.934 7.98074L391.934 7.99995C388.361 7.96694 385.5 10.8112 385.5 14.375C385.5 16.2036 385.785 17.3658 386.171 18.1093C386.551 18.8405 387.031 19.2982 387.936 19.7504C388.741 20.1524 389.25 20.9749 389.25 21.8748V21.875C389.25 33.6797 394.07 39.5767 399.231 42.4311C401.826 43.8662 404.568 44.5027 406.838 44.5661C407.963 44.5975 408.967 44.4582 409.751 44.258C410.556 44.0524 411.071 43.7975 411.26 43.6382L411.26 43.6381C411.985 43.0295 413.002 42.9092 413.849 43.3319L413.849 43.3321L426.593 49.7039L417.609 39.7142C417.217 39.2779 417 38.7117 417 38.1248L391.934 7.99995ZM391.934 7.99995C395.91 8.03592 398.785 11.8905 398.139 16.081L398.139 16.0813C398.093 16.3782 398.108 16.6535 398.156 16.9007C394.485 18.705 392 22.4591 392 26.875C392 32.489 396.249 36.2885 400.465 38.5088C404.687 40.7319 409.14 41.7491 411.872 41.75C412.727 41.7607 413.522 41.311 413.953 40.5722C414.385 39.8325 414.385 38.9175 413.953 38.1777C413.522 37.439 412.727 36.9892 411.872 37C411.181 36.9993 409.762 36.7906 408.055 36.3407C406.355 35.8926 404.412 35.2162 402.679 34.3037C399.169 32.4553 396.75 30.0032 396.75 26.875C396.75 24.9621 397.41 23.3751 398.518 22.2676C399.625 21.1605 401.211 20.5006 403.122 20.5M391.934 7.99995L403.122 20.5M403.122 20.5C403.262 20.5013 403.401 20.4904 403.538 20.4673C405.057 21.1195 406.817 21.9638 408.569 23.1089C412.909 25.9451 417 30.2793 417 38.1247L403.122 20.5ZM403.75 56.75H403.75C404.573 56.7497 405.337 56.3237 405.769 55.624C406.202 54.9243 406.242 54.0505 405.875 53.3143L405.874 53.3139L403.715 48.9972C404.74 49.1827 405.743 49.2888 406.705 49.3157C409.033 49.3807 411.023 48.9344 412.715 48.0761L426.859 55.1469C426.859 55.1469 426.859 55.1469 426.859 55.1469C429.611 56.5228 433 54.4254 433 51.3501C433 50.2905 432.601 49.2682 431.886 48.4872C431.886 48.4867 431.885 48.4861 431.885 48.4856L421.623 37.07C421.219 28.0816 416.117 22.3675 411.167 19.1322C408.598 17.453 406.077 16.3554 404.26 15.6182C403.924 15.4819 403.629 15.3637 403.368 15.259C403.147 15.1704 402.949 15.0915 402.772 15.0192C402.794 8.94717 398.425 3.31075 391.977 3.25243V3.25241H391.975C387.495 3.21195 383.609 5.85449 381.814 9.6562L378.963 10.3694C378.963 10.3694 378.963 10.3694 378.963 10.3694C377.809 10.6576 377 11.6939 377 12.8833C377 13.5702 377.272 14.2309 377.759 14.7164C377.759 14.7166 377.76 14.7167 377.76 14.7169L381.168 18.1246C381.354 18.8896 381.602 19.6223 381.954 20.2988C382.597 21.5368 383.567 22.4547 384.625 23.1877C385.023 35.5289 390.542 43.0527 396.933 46.5874C397.043 46.6478 397.165 46.7094 397.275 46.7649C397.282 46.7682 397.288 46.7715 397.295 46.7747L399.909 52H395.628C394.773 51.9892 393.978 52.439 393.547 53.1777C393.115 53.9175 393.115 54.8325 393.547 55.5722C393.978 56.311 394.773 56.7607 395.628 56.75H403.75ZM391.938 7.50033L391.938 7.49997L391.938 7.50033ZM390.625 10.75C389.313 10.75 388.25 11.8133 388.25 13.125C388.25 14.4366 389.313 15.5 390.625 15.5C391.937 15.5 393 14.4366 393 13.125C393 11.8133 391.937 10.75 390.625 10.75Z" fill="#465D59" stroke="#E8F7EE"/>
<path d="M384.108 74.8937V86.0938H388.364C389.516 86.0938 390.428 85.8057 391.068 85.2297C391.708 84.6537 392.028 83.8537 392.028 82.8297C392.028 82.0457 391.836 81.4217 391.468 80.9577C391.084 80.4937 390.62 80.1577 390.044 79.9657C390.236 79.8857 390.412 79.7737 390.588 79.6297C390.764 79.5017 390.924 79.3417 391.068 79.1497C391.196 78.9577 391.308 78.7497 391.404 78.5097C391.484 78.2857 391.532 78.0297 391.532 77.7737C391.532 76.8617 391.228 76.1577 390.62 75.6457C390.012 75.1497 389.164 74.8937 388.108 74.8937H384.108ZM388.076 79.5337H385.468V76.0938H388.076C388.748 76.0938 389.26 76.2377 389.628 76.5257C389.98 76.8137 390.172 77.2297 390.172 77.8057C390.172 78.3817 389.98 78.8137 389.628 79.1017C389.26 79.3897 388.748 79.5337 388.076 79.5337ZM388.14 84.8617H385.468V80.7497H388.14C388.972 80.7497 389.596 80.9257 390.012 81.2777C390.428 81.6297 390.636 82.1417 390.636 82.8137C390.636 83.4857 390.428 83.9977 390.012 84.3497C389.596 84.7017 388.972 84.8617 388.14 84.8617ZM395.137 74.7177H393.665V76.5097H395.137V74.7177ZM393.761 78.0297V86.0938H395.041V78.0297H393.761ZM400.528 79.1657H401.648V78.0297H400.624C400.016 78.0297 399.552 78.1737 399.2 78.4297C398.848 78.7017 398.592 79.1177 398.432 79.6617V78.0297H397.152V86.0938H398.432V82.5417C398.432 82.0617 398.464 81.6297 398.528 81.2137C398.592 80.7977 398.704 80.4457 398.864 80.1417C399.024 79.8377 399.232 79.5977 399.504 79.4217C399.776 79.2617 400.112 79.1657 400.528 79.1657ZM406.06 86.2218C406.636 86.2218 407.164 86.0938 407.644 85.8377C408.124 85.5817 408.476 85.2137 408.732 84.7657V86.0938H410.012V74.7177H408.732V79.3417C408.476 78.9097 408.124 78.5577 407.644 78.3017C407.164 78.0457 406.636 77.9017 406.06 77.9017C405.42 77.9017 404.86 78.0138 404.38 78.2217C403.9 78.4457 403.484 78.7337 403.164 79.1017C402.844 79.4857 402.588 79.9177 402.428 80.4297C402.252 80.9417 402.172 81.4857 402.172 82.0617C402.172 82.6537 402.252 83.1977 402.428 83.7097C402.588 84.2217 402.844 84.6537 403.164 85.0217C403.484 85.4057 403.9 85.6937 404.38 85.9017C404.86 86.1258 405.42 86.2218 406.06 86.2218ZM406.172 85.0697C405.756 85.0697 405.388 85.0057 405.068 84.8617C404.732 84.7177 404.444 84.5097 404.22 84.2537C403.98 83.9977 403.804 83.6777 403.676 83.3097C403.548 82.9417 403.484 82.5257 403.484 82.0617C403.484 81.6137 403.548 81.1977 403.676 80.8297C403.804 80.4617 403.98 80.1417 404.22 79.8857C404.444 79.6297 404.732 79.4217 405.068 79.2777C405.388 79.1337 405.756 79.0537 406.172 79.0537C406.572 79.0537 406.94 79.1337 407.276 79.2777C407.596 79.4217 407.884 79.6297 408.108 79.8857C408.332 80.1417 408.524 80.4617 408.652 80.8297C408.78 81.1977 408.844 81.6137 408.844 82.0617C408.844 82.5257 408.78 82.9417 408.652 83.3097C408.524 83.6777 408.332 83.9977 408.108 84.2537C407.884 84.5097 407.596 84.7177 407.276 84.8617C406.94 85.0057 406.572 85.0697 406.172 85.0697ZM414.983 86.2218C415.879 86.2218 416.583 86.0137 417.127 85.5817C417.671 85.1657 417.943 84.5897 417.943 83.8537C417.943 83.2457 417.815 82.7657 417.591 82.4457C417.351 82.1257 417.063 81.9017 416.711 81.7417C416.359 81.5817 415.991 81.4857 415.575 81.4377C415.159 81.3898 414.791 81.3257 414.439 81.2617C414.087 81.1977 413.799 81.0857 413.575 80.9257C413.335 80.7657 413.223 80.5097 413.223 80.1417C413.223 79.7897 413.351 79.5177 413.639 79.3097C413.927 79.1017 414.311 78.9897 414.791 78.9897C414.967 78.9897 415.159 79.0217 415.367 79.0697C415.575 79.1177 415.767 79.1977 415.943 79.2937C416.119 79.4057 416.279 79.5497 416.407 79.7257C416.535 79.9017 416.615 80.1097 416.647 80.3657H417.895C417.831 79.6297 417.527 79.0217 416.983 78.5737C416.439 78.1257 415.719 77.9017 414.823 77.9017C414.391 77.9017 414.007 77.9657 413.655 78.0617C413.303 78.1737 413.015 78.3337 412.759 78.5257C412.503 78.7177 412.311 78.9577 412.183 79.2297C412.039 79.5177 411.975 79.8217 411.975 80.1577C411.975 80.7337 412.087 81.1817 412.311 81.4857C412.535 81.7897 412.839 82.0137 413.191 82.1417C413.543 82.2857 413.911 82.3817 414.311 82.4297C414.711 82.4937 415.095 82.5577 415.447 82.6377C415.799 82.7177 416.087 82.8457 416.311 83.0217C416.535 83.1977 416.663 83.4857 416.663 83.8857C416.663 84.2217 416.503 84.5097 416.199 84.7497C415.895 84.9897 415.495 85.1017 414.983 85.1017C414.391 85.1017 413.927 84.9737 413.591 84.7017C413.239 84.4297 413.047 84.0297 412.999 83.5017H411.767C411.831 84.3497 412.135 85.0217 412.711 85.5017C413.287 85.9817 414.039 86.2218 414.983 86.2218Z" fill="black"/>
<path d="M544.78 3.22638V3.2844C545.628 3.43052 546.348 4.03097 546.629 4.87356L546.629 4.87367L548.597 10.7775C551.433 10.9894 554.05 12.4183 555.759 14.6979L559.799 15.3711L559.799 15.3711C562.417 15.8083 564.225 18.3205 563.813 20.9387V20.9425L563.806 20.9834L563.701 21.6105L544.78 3.22638ZM544.78 3.22638L544.254 3.25313M544.78 3.22638L544.254 3.25313M532.767 23.2501L537.17 12.244C537.17 12.2439 537.17 12.2438 537.17 12.2437C537.231 12.0909 537.307 11.9449 537.399 11.808L537.399 11.8077L542.399 4.30766L542.399 4.30764C542.816 3.68243 543.504 3.29134 544.254 3.25313M532.767 23.2501L544.254 3.25315C544.254 3.25314 544.254 3.25314 544.254 3.25313M532.767 23.2501H524.375C519.846 23.2501 515.407 24.5238 511.566 26.9247C511.566 26.9247 511.566 26.9247 511.566 26.9247L509.496 28.2186L532.767 23.2501ZM514.5 36.8427L514.231 36.9673L514.231 36.9674C512.248 37.8862 509.88 37.396 508.424 35.768C506.385 33.4907 506.904 29.8378 509.496 28.2186L514.5 36.8427ZM514.5 36.8427V50.6251C514.5 53.9856 517.264 56.7501 520.625 56.7501C523.985 56.7501 526.75 53.9856 526.75 50.6251V46.323M514.5 36.8427L526.75 46.323M526.75 46.323L530.427 45.5867L538.25 48.5204V50.6251C538.25 53.9856 541.014 56.7501 544.375 56.7501C547.735 56.7501 550.5 53.9856 550.5 50.6251V44.1092C551.233 43.3945 552.357 42.158 553.374 40.1236C554.739 37.394 555.35 33.4034 553.254 29.3452C553.279 29.3361 553.304 29.3271 553.328 29.3183C553.433 29.2803 553.528 29.2455 553.597 29.2201L553.667 29.1943L556.61 28.7013C560.239 28.0968 563.096 25.2392 563.701 21.6109L526.75 46.323ZM543.657 10.9837L544.621 13.8763L544.621 13.8765C544.944 14.8466 545.853 15.5006 546.875 15.5M543.657 10.9837L546.6 41.3032L546.601 41.3025C546.602 41.3019 546.603 41.3013 546.603 41.3007L546.613 41.2921C546.623 41.2833 546.639 41.2694 546.66 41.2506C546.702 41.2131 546.764 41.1559 546.843 41.0802C547 40.9287 547.223 40.7039 547.478 40.4149C547.989 39.8352 548.623 39.0061 549.125 38.0015C549.603 37.0464 549.942 36.0286 549.967 34.915C549.99 33.9317 549.767 32.846 549.14 31.6357C549.065 31.6828 549.009 31.719 548.969 31.7482C548.59 32.4875 547.85 32.977 547.017 33.034C546.158 33.0928 545.333 32.6813 544.864 31.9587C544.395 31.2377 544.353 30.3199 544.753 29.559C545.857 27.3562 547.933 26.3398 549.504 25.6418C550.311 25.2832 551.07 25.0163 551.626 24.8391C551.905 24.7504 552.134 24.6838 552.295 24.6392C552.375 24.6169 552.438 24.6 552.481 24.5887L552.532 24.5757L552.545 24.5722L552.545 24.5722C552.607 24.5563 552.669 24.5429 552.731 24.532L552.735 24.5312L555.831 24.0161C557.47 23.7431 558.743 22.47 559.016 20.8309L559.121 20.201L559.121 20.2009C559.132 20.1372 559.116 20.1093 559.109 20.1005C559.103 20.0917 559.081 20.067 559.017 20.0562L559.017 20.0562L559.099 19.563M543.657 10.9837L541.487 14.2356L536.58 26.5064C536.58 26.5064 536.58 26.5065 536.58 26.5065C536.219 27.4083 535.346 27.9998 534.375 28H534.375H524.375C520.736 28 517.17 29.0224 514.083 30.9514L513.818 30.5274L543.657 10.9837ZM546.875 15.5H546.875V15L546.875 15.5ZM546.875 15.5H547.861C549.531 15.5 551.091 16.3112 552.049 17.6708L552.126 17.7859L552.399 18.1921L552.815 17.9151M552.815 17.9151L552.4 18.1936L552.399 18.1928C552.763 18.7393 553.337 19.1108 553.985 19.2188L553.985 19.2188L559.017 20.0562L559.099 19.563M552.815 17.9151C553.102 18.3469 553.556 18.6403 554.067 18.7256M552.815 17.9151L552.541 17.5074L554.067 18.7256M559.099 19.563C559.463 19.6239 559.675 19.9199 559.614 20.2832L554.067 18.7256M559.099 19.563L554.067 18.7256M548.125 17C546.813 17 545.75 18.0634 545.75 19.375C545.75 20.6867 546.813 21.75 548.125 21.75C549.437 21.75 550.5 20.6867 550.5 19.375C550.5 18.0634 549.437 17 548.125 17Z" fill="#465D59" stroke="#E8F7EE"/>
<path d="M516.428 74.8937H515.068V79.6937H509.132V74.8937H507.772V86.0938H509.132V80.9257H515.068V86.0938H516.428V74.8937ZM522.307 86.2218C522.899 86.2218 523.443 86.1258 523.955 85.9177C524.467 85.7097 524.899 85.4217 525.267 85.0537C525.619 84.6857 525.907 84.2537 526.115 83.7418C526.307 83.2297 526.419 82.6697 526.419 82.0617C526.419 81.4537 526.307 80.8937 526.115 80.3817C525.907 79.8697 525.619 79.4377 525.267 79.0697C524.899 78.7017 524.467 78.4137 523.955 78.2057C523.443 78.0138 522.899 77.9017 522.307 77.9017C521.699 77.9017 521.155 78.0138 520.659 78.2057C520.147 78.4137 519.715 78.7017 519.363 79.0697C518.995 79.4377 518.707 79.8697 518.515 80.3817C518.307 80.8937 518.211 81.4537 518.211 82.0617C518.211 82.6697 518.307 83.2297 518.515 83.7418C518.707 84.2537 518.995 84.6857 519.363 85.0537C519.715 85.4217 520.147 85.7097 520.659 85.9177C521.155 86.1258 521.699 86.2218 522.307 86.2218ZM522.307 85.0697C521.891 85.0697 521.507 85.0057 521.171 84.8457C520.819 84.7017 520.531 84.4937 520.291 84.2217C520.035 83.9657 519.843 83.6457 519.715 83.2777C519.587 82.9097 519.523 82.5097 519.523 82.0617C519.523 81.6297 519.587 81.2297 519.715 80.8617C519.843 80.4937 520.035 80.1737 520.291 79.9017C520.531 79.6457 520.819 79.4377 521.171 79.2777C521.507 79.1337 521.891 79.0537 522.307 79.0537C522.723 79.0537 523.091 79.1337 523.443 79.2777C523.779 79.4377 524.067 79.6457 524.323 79.9017C524.579 80.1737 524.771 80.4937 524.899 80.8617C525.027 81.2297 525.107 81.6297 525.107 82.0617C525.107 82.5097 525.027 82.9097 524.899 83.2777C524.771 83.6457 524.579 83.9657 524.323 84.2217C524.067 84.4937 523.779 84.7017 523.443 84.8457C523.091 85.0057 522.723 85.0697 522.307 85.0697ZM531.442 79.1657H532.562V78.0297H531.538C530.93 78.0297 530.466 78.1737 530.114 78.4297C529.762 78.7017 529.506 79.1177 529.346 79.6617V78.0297H528.066V86.0938H529.346V82.5417C529.346 82.0617 529.378 81.6297 529.442 81.2137C529.506 80.7977 529.618 80.4457 529.778 80.1417C529.938 79.8377 530.146 79.5977 530.418 79.4217C530.69 79.2617 531.026 79.1657 531.442 79.1657ZM536.506 86.2218C537.402 86.2218 538.106 86.0137 538.65 85.5817C539.194 85.1657 539.466 84.5897 539.466 83.8537C539.466 83.2457 539.338 82.7657 539.114 82.4457C538.874 82.1257 538.586 81.9017 538.234 81.7417C537.882 81.5817 537.514 81.4857 537.098 81.4377C536.682 81.3898 536.314 81.3257 535.962 81.2617C535.61 81.1977 535.322 81.0857 535.098 80.9257C534.858 80.7657 534.746 80.5097 534.746 80.1417C534.746 79.7897 534.874 79.5177 535.162 79.3097C535.45 79.1017 535.834 78.9897 536.314 78.9897C536.49 78.9897 536.682 79.0217 536.89 79.0697C537.098 79.1177 537.29 79.1977 537.466 79.2937C537.642 79.4057 537.802 79.5497 537.93 79.7257C538.058 79.9017 538.138 80.1097 538.17 80.3657H539.418C539.354 79.6297 539.05 79.0217 538.506 78.5737C537.962 78.1257 537.242 77.9017 536.346 77.9017C535.914 77.9017 535.53 77.9657 535.178 78.0617C534.826 78.1737 534.538 78.3337 534.282 78.5257C534.026 78.7177 533.834 78.9577 533.706 79.2297C533.562 79.5177 533.498 79.8217 533.498 80.1577C533.498 80.7337 533.61 81.1817 533.834 81.4857C534.058 81.7897 534.362 82.0137 534.714 82.1417C535.066 82.2857 535.434 82.3817 535.834 82.4297C536.234 82.4937 536.618 82.5577 536.97 82.6377C537.322 82.7177 537.61 82.8457 537.834 83.0217C538.058 83.1977 538.186 83.4857 538.186 83.8857C538.186 84.2217 538.026 84.5097 537.722 84.7497C537.418 84.9897 537.018 85.1017 536.506 85.1017C535.914 85.1017 535.45 84.9737 535.114 84.7017C534.762 84.4297 534.57 84.0297 534.522 83.5017H533.29C533.354 84.3497 533.658 85.0217 534.234 85.5017C534.81 85.9817 535.562 86.2218 536.506 86.2218ZM548.376 83.5017H547.08C546.952 84.0137 546.68 84.4137 546.28 84.6857C545.864 84.9577 545.336 85.0857 544.68 85.0857C544.296 85.0857 543.944 85.0217 543.624 84.8777C543.304 84.7497 543.016 84.5417 542.776 84.2857C542.536 84.0297 542.344 83.7418 542.2 83.3897C542.056 83.0377 541.976 82.6537 541.96 82.2377H548.264C548.264 82.1897 548.28 82.1097 548.28 81.9818C548.28 81.8698 548.296 81.7737 548.296 81.6777C548.296 81.1497 548.2 80.6537 548.04 80.1897C547.864 79.7257 547.608 79.3257 547.288 78.9897C546.968 78.6537 546.568 78.3817 546.104 78.1897C545.64 77.9977 545.112 77.9017 544.536 77.9017C543.944 77.9017 543.416 78.0138 542.936 78.2217C542.456 78.4297 542.056 78.7177 541.72 79.0697C541.384 79.4377 541.128 79.8697 540.952 80.3657C540.776 80.8777 540.696 81.4217 540.696 82.0137C540.696 82.5897 540.792 83.1337 540.984 83.6457C541.176 84.1577 541.432 84.6057 541.784 84.9897C542.136 85.3737 542.552 85.6617 543.048 85.8857C543.528 86.1098 544.072 86.2218 544.68 86.2218C545.176 86.2218 545.64 86.1578 546.056 86.0297C546.472 85.9017 546.856 85.7257 547.176 85.4857C547.496 85.2457 547.752 84.9577 547.96 84.6217C548.168 84.3017 548.312 83.9177 548.376 83.5017ZM544.536 78.9897C545.256 78.9897 545.832 79.1977 546.264 79.5977C546.68 79.9977 546.92 80.5417 546.984 81.2137H542.024C542.136 80.5097 542.408 79.9497 542.856 79.5657C543.288 79.1817 543.848 78.9897 544.536 78.9897ZM552.741 86.2218C553.637 86.2218 554.341 86.0137 554.885 85.5817C555.429 85.1657 555.701 84.5897 555.701 83.8537C555.701 83.2457 555.573 82.7657 555.349 82.4457C555.109 82.1257 554.821 81.9017 554.469 81.7417C554.117 81.5817 553.749 81.4857 553.333 81.4377C552.917 81.3898 552.549 81.3257 552.197 81.2617C551.845 81.1977 551.557 81.0857 551.333 80.9257C551.093 80.7657 550.981 80.5097 550.981 80.1417C550.981 79.7897 551.109 79.5177 551.397 79.3097C551.685 79.1017 552.069 78.9897 552.549 78.9897C552.725 78.9897 552.917 79.0217 553.125 79.0697C553.333 79.1177 553.525 79.1977 553.701 79.2937C553.877 79.4057 554.037 79.5497 554.165 79.7257C554.293 79.9017 554.373 80.1097 554.405 80.3657H555.653C555.589 79.6297 555.285 79.0217 554.741 78.5737C554.197 78.1257 553.477 77.9017 552.581 77.9017C552.149 77.9017 551.765 77.9657 551.413 78.0617C551.061 78.1737 550.773 78.3337 550.517 78.5257C550.261 78.7177 550.069 78.9577 549.941 79.2297C549.797 79.5177 549.733 79.8217 549.733 80.1577C549.733 80.7337 549.845 81.1817 550.069 81.4857C550.293 81.7897 550.597 82.0137 550.949 82.1417C551.301 82.2857 551.669 82.3817 552.069 82.4297C552.469 82.4937 552.853 82.5577 553.205 82.6377C553.557 82.7177 553.845 82.8457 554.069 83.0217C554.293 83.1977 554.421 83.4857 554.421 83.8857C554.421 84.2217 554.261 84.5097 553.957 84.7497C553.653 84.9897 553.253 85.1017 552.741 85.1017C552.149 85.1017 551.685 84.9737 551.349 84.7017C550.997 84.4297 550.805 84.0297 550.757 83.5017H549.525C549.589 84.3497 549.893 85.0217 550.469 85.5017C551.045 85.9817 551.797 86.2218 552.741 86.2218Z" fill="black"/>
</svg>
